<svg xmlns="http://www.w3.org/2000/svg" width="56.1" height="71.383" viewBox="0 0 56.1 71.383">
  <g id="icons_approved_live_training" data-name="icons_approved_live_training" transform="translate(-17.5 -4.4)">
    <g id="Group_59" data-name="Group 59" transform="translate(17.5 4.4)">
      <g id="Group_53" data-name="Group 53" transform="translate(30.267 8.99)">
        <path id="Path_52" data-name="Path 52" d="M69.2,19.4,68,35.882a.319.319,0,0,0,.42.3l7.132-3.716,7.132,3.716c.18.12.42-.06.42-.3L81.905,19.4H69.2Z" transform="translate(-68 -19.4)" fill="#0180a9"/>
      </g>
      <g id="Group_55" data-name="Group 55">
        <g id="Group_54" data-name="Group 54">
          <path id="Path_53" data-name="Path 53" d="M73.24,10.094A5.691,5.691,0,0,0,67.546,4.4H23.194A5.691,5.691,0,0,0,17.5,10.094v60a5.654,5.654,0,0,0,1.259,3.536h0a3.426,3.426,0,0,0,.42.479l.12.12a7.487,7.487,0,0,0,.719.539.209.209,0,0,0,.12.06c.24.18.539.3.839.479.06,0,.12.06.18.06a4.492,4.492,0,0,0,.959.3h.18a6.605,6.605,0,0,0,1.079.12H67.726a6.6,6.6,0,0,0,1.079-.12h.18a8.536,8.536,0,0,0,.959-.3c.06,0,.12-.06.18-.06a4.171,4.171,0,0,0,.839-.479c.06,0,.06-.06.12-.06l.719-.539c.06,0,.06-.06.12-.12a3,3,0,0,0,.42-.479h0A5.529,5.529,0,0,0,73.6,70.089v-60ZM45.37,73.326h0a2.757,2.757,0,1,1-.06-5.514h0a2.789,2.789,0,0,1,2.757,2.757A2.7,2.7,0,0,1,45.37,73.326Zm22.835-9.29a.9.9,0,0,1-.959.9H23.434a.935.935,0,0,1-.959-.9V11.892a.9.9,0,0,1,.959-.9H67.306a.935.935,0,0,1,.959.9V64.036Z" transform="translate(-17.5 -4.4)" fill="#0180a9"/>
        </g>
      </g>
      <g id="Group_56" data-name="Group 56" transform="translate(10.429 29.968)">
        <path id="Path_54" data-name="Path 54" d="M68.644,54.4h-32.6a1.139,1.139,0,1,0,0,2.278h32.6a1.138,1.138,0,0,0,1.139-1.139A1.1,1.1,0,0,0,68.644,54.4Z" transform="translate(-34.9 -54.4)" fill="#0180a9"/>
      </g>
      <g id="Group_57" data-name="Group 57" transform="translate(10.429 40.097)">
        <path id="Path_55" data-name="Path 55" d="M68.644,71.3h-32.6a1.139,1.139,0,1,0,0,2.278h32.6a1.138,1.138,0,0,0,1.139-1.139A1.069,1.069,0,0,0,68.644,71.3Z" transform="translate(-34.9 -71.3)" fill="#0180a9"/>
      </g>
      <g id="Group_58" data-name="Group 58" transform="translate(10.429 50.226)">
        <path id="Path_56" data-name="Path 56" d="M68.644,88.2h-32.6A1.138,1.138,0,0,0,34.9,89.339a1.179,1.179,0,0,0,1.139,1.139h32.6a1.139,1.139,0,1,0,0-2.278Z" transform="translate(-34.9 -88.2)" fill="#0180a9"/>
      </g>
    </g>
  </g>
</svg>
