<svg xmlns="http://www.w3.org/2000/svg" width="50.832" height="65.355" viewBox="0 0 50.832 65.355"><defs><style>.a{fill:#0180a9;}</style></defs><g id="icon-ypgr" transform="translate(11 5)"><rect class="a" width="7" height="7" transform="translate(10 46.355)"/><rect class="a" width="7" height="7" transform="translate(10 29.355)"/><path class="a" d="M60.621,5H12.21A1.211,1.211,0,0,0,11,6.21V69.145a1.21,1.21,0,0,0,1.21,1.21H60.621a1.209,1.209,0,0,0,1.21-1.21V6.21A1.21,1.21,0,0,0,60.621,5ZM38.836,41.308H46.1a1.21,1.21,0,0,1,0,2.421H38.836a1.21,1.21,0,0,1,0-2.421Zm-1.21-3.631a1.21,1.21,0,0,1,1.21-1.21h12.1a1.21,1.21,0,1,1,0,2.421h-12.1A1.21,1.21,0,0,1,37.626,37.677ZM18.262,15.892a1.211,1.211,0,0,1,1.21-1.21h4.841a1.21,1.21,0,0,1,0,2.421H20.682v7.262h1.21a1.21,1.21,0,1,1,0,2.421H19.472a1.211,1.211,0,0,1-1.21-1.21Zm12.1,43.57a1.21,1.21,0,0,1-1.21,1.21H19.472a1.21,1.21,0,0,1-1.21-1.21V49.78a1.21,1.21,0,0,1,1.21-1.21h9.682a1.21,1.21,0,0,1,1.21,1.21Zm0-16.944a1.21,1.21,0,0,1-1.21,1.21H19.472a1.21,1.21,0,0,1-1.21-1.21V32.836a1.211,1.211,0,0,1,1.21-1.21h9.682a1.211,1.211,0,0,1,1.21,1.21Zm2.217-25.954-5.66,8.49-3.464-3.465a1.21,1.21,0,1,1,1.711-1.711l1.377,1.376,4.022-6.033a1.21,1.21,0,0,1,2.014,1.343ZM48.519,60.673H38.836a1.21,1.21,0,1,1,0-2.421h9.682a1.21,1.21,0,1,1,0,2.421ZM37.626,54.621a1.209,1.209,0,0,1,1.21-1.21H46.1a1.21,1.21,0,1,1,0,2.421H38.836A1.209,1.209,0,0,1,37.626,54.621ZM53.36,50.991H38.836a1.21,1.21,0,1,1,0-2.421H53.36a1.21,1.21,0,0,1,0,2.421Zm0-16.944H38.836a1.21,1.21,0,1,1,0-2.421H53.36a1.21,1.21,0,0,1,0,2.421ZM37.626,20.734a1.21,1.21,0,0,1,1.21-1.21h9.682a1.21,1.21,0,1,1,0,2.421H38.836A1.21,1.21,0,0,1,37.626,20.734ZM53.36,17.1H38.836a1.21,1.21,0,1,1,0-2.421H53.36a1.21,1.21,0,1,1,0,2.421Z" transform="translate(-11 -5)"/></g></svg>