<svg xmlns="http://www.w3.org/2000/svg" width="53.592" height="54.054" viewBox="0 0 53.592 54.054">
  <g id="noun_online_video_2485264" data-name="noun_online video_2485264" transform="translate(-1.6 -12.7)">
    <path id="Path_48" data-name="Path 48" d="M49.61,12.7H7.183C4.134,12.7,1.6,15.809,1.6,19.55V59.858c0,3.319,2.018,6.323,4.724,6.639.9.105,19.2.211,27.44.211h8.717c2.448,0,4.81.105,7.128,0,3.135-.211,5.5-3.214,5.5-6.955.086-14.648.086-25.449.086-40.1C55.192,15.914,52.659,12.805,49.61,12.7ZM21.053,17.6c1.2,0,2.19,1.37,2.19,2.687a2.526,2.526,0,0,1-2.19,2.687,2.523,2.523,0,0,1-2.19-2.687A2.519,2.519,0,0,1,21.053,17.6Zm-6.742-.158c1.288,0,2.19,1.159,2.19,2.687-.086,1.686-1.031,2.793-2.19,2.793a2.444,2.444,0,0,1-2.1-2.793A2.492,2.492,0,0,1,14.311,17.442ZM7.44,17.6c1.2,0,2.19,1.37,2.19,2.687a2.526,2.526,0,0,1-2.19,2.687,2.523,2.523,0,0,1-2.19-2.687A2.488,2.488,0,0,1,7.44,17.6ZM51.972,58.593c-.172,2.687-1.5,4.268-3.736,4.268H8.771c-2.619,0-4.08-1.686-4.08-5.006V26.5H38.058c1.031,0,1.031,0,1.031-1.265v-3c0-.738.172-1.054.773-1.054h8.546c.687,0,.859.316.773,1.054v3.425c0,.632.172.948.687.843h2.1V58.593Z" transform="translate(0 0)" fill="#fff"/>
    <path id="Path_49" data-name="Path 49" d="M86.232,87.1H84.3V90h1.932a1.485,1.485,0,0,0,0-2.9Z" transform="translate(-47.186 -35.198)" fill="#fff"/>
    <path id="Path_50" data-name="Path 50" d="M53.521,83.2a1.306,1.306,0,0,0-1.159,1.423v.58h-15.5a1.453,1.453,0,0,0,0,2.845h15.5v.58a1.184,1.184,0,1,0,2.319,0V84.675A1.359,1.359,0,0,0,53.521,83.2Z" transform="translate(-19.457 -33.353)" fill="#fff"/>
    <path id="Path_51" data-name="Path 51" d="M51.672,64.917a.979.979,0,0,0,.515.158.844.844,0,0,0,.472-.158L61.292,58.7a1.254,1.254,0,0,0,.558-1.054,1.189,1.189,0,0,0-.515-1.054L52.617,50.48a.788.788,0,0,0-.945.053,1.2,1.2,0,0,0-.472,1v12.33A1.3,1.3,0,0,0,51.672,64.917Z" transform="translate(-28.3 -17.81)" fill="#fff"/>
  </g>
</svg>
