<svg xmlns="http://www.w3.org/2000/svg" width="79" height="79" viewBox="0 0 79 79"><defs><style>.a{fill:none;}.b{fill:#0180a9;fill-rule:evenodd;}</style></defs><g transform="translate(-285 -1137)"><g transform="translate(96 1137.067)"><g transform="translate(189 -0.067)"><rect class="a" width="79" height="79" transform="translate(0 0)"/><g transform="translate(16.441 44.475)"><path class="b" d="M12,27Z" transform="translate(-12 -27)"/></g><g transform="translate(13.153 28.034)"><path class="b" d="M249.61,17H197V29.682a1.912,1.912,0,0,0,1.644,2.114h36.169V28.538a9.9,9.9,0,0,1,9.894-9.894h0a3.256,3.256,0,0,1,3.255,3.255v9.9a1.912,1.912,0,0,0,1.644-2.114Zm-42.746,8.22h-4.932a1.644,1.644,0,0,0,0,3.288h4.932a1.644,1.644,0,0,0,0-3.288Zm-1.644-4.932h-3.288a1.644,1.644,0,0,0,0,3.288h3.288a1.644,1.644,0,1,0,0-3.288Z" transform="translate(-197 -17)"/></g><g transform="translate(18.085 32.966)"><path class="b" d="M242.746,37.55V20a6.607,6.607,0,0,0-6.576,6.606V34.8a1.644,1.644,0,0,1-3.288,0V33.153H200v4.4a20.264,20.264,0,0,0,20.263,20.263h2.219A20.264,20.264,0,0,0,242.746,37.55Z" transform="translate(-200 -20)"/></g><g transform="translate(13.153 19.814)"><path class="b" d="M247.966,12H198.644A1.912,1.912,0,0,0,197,14.114v2.818h52.61V14.114A1.912,1.912,0,0,0,247.966,12Z" transform="translate(-197 -12)"/></g><g transform="translate(18.525 14.881)"><path class="b" d="M205.963,10.644a3.288,3.288,0,0,0-5.7,0Z" transform="translate(-200.268 -9)"/></g><g transform="translate(27.949 11.593)"><path class="b" d="M212.576,11.932V10.288a3.288,3.288,0,0,0-6.576,0v1.644Z" transform="translate(-206 -7)"/></g><g transform="translate(37.813 8.305)"><path class="b" d="M218.576,13.22V8.288a3.288,3.288,0,0,0-6.576,0V13.22Z" transform="translate(-212 -5)"/></g><g transform="translate(48.118 14.881)"><path class="b" d="M223.963,10.644a3.288,3.288,0,0,0-5.695,0Z" transform="translate(-218.268 -9)"/></g></g></g></g></svg>