<svg xmlns="http://www.w3.org/2000/svg" width="90.001" height="86.874" viewBox="0 0 90.001 86.874"><defs><style>.a{fill:none;}.b{fill:#fff;}</style></defs><g transform="translate(-805 -858)"><g transform="translate(800 849.437)"><path class="a" d="M57.021,81.8a2.145,2.145,0,1,0,1.515.632A2.137,2.137,0,0,0,57.021,81.8Z"/><path class="b" d="M61.589,88.5a6.449,6.449,0,1,1-9.123-9.118l18.74-18.739a25.288,25.288,0,0,0-12.271-4.516c-.1,4.635-6.97,8.374-15.428,8.374S28.18,60.758,28.079,56.123A25.423,25.423,0,0,0,5,81.433c0,14.04,11.381,14,25.418,14H56.6c14.037,0,25.418.036,25.418-14a25.3,25.3,0,0,0-2.459-10.9Z"/><path class="b" d="M93,55.067l-4.981,4.979H83.888l-2.975-2.968,0-4.138,4.979-4.979-2-2a10.681,10.681,0,0,0-9.573,14.424L53.894,80.806a4.43,4.43,0,1,0,6.265,6.266L80.58,66.648A10.677,10.677,0,0,0,95,57.073ZM58.54,85.449a2.145,2.145,0,1,1,0-3.021A2.136,2.136,0,0,1,58.54,85.449Z"/></g><g transform="translate(821.725 858)"><path class="b" d="M46.135,20.572a1.506,1.506,0,0,0-1.49-1.138,5.09,5.09,0,0,1-3.5-8.889,1.286,1.286,0,0,0,.143-1.754,23.321,23.321,0,0,0-3.669-3.7,1.291,1.291,0,0,0-1.763.143,5.317,5.317,0,0,1-5.765,1.3,5.155,5.155,0,0,1-3.119-5.025A1.3,1.3,0,0,0,25.836.153a23.307,23.307,0,0,0-5.2-.014,1.291,1.291,0,0,0-1.148,1.319,5.141,5.141,0,0,1-3.17,4.933,5.367,5.367,0,0,1-5.728-1.3,1.286,1.286,0,0,0-1.744-.143,22.969,22.969,0,0,0-3.739,3.7,1.3,1.3,0,0,0,.134,1.763A5.122,5.122,0,0,1,6.55,16.2,5.349,5.349,0,0,1,1.516,19.3,1.259,1.259,0,0,0,.183,20.443a22.742,22.742,0,0,0,0,5.256,1.488,1.488,0,0,0,1.508,1.138,5.09,5.09,0,0,1,4.757,3.174,5.15,5.15,0,0,1-1.291,5.719,1.286,1.286,0,0,0-.143,1.749,22.886,22.886,0,0,0,3.66,3.7,1.291,1.291,0,0,0,1.763-.134,5.335,5.335,0,0,1,5.775-1.309,5.122,5.122,0,0,1,3.123,5.02,1.3,1.3,0,0,0,1.138,1.356,23.835,23.835,0,0,0,2.665.153,21.748,21.748,0,0,0,2.54-.143A1.291,1.291,0,0,0,26.826,44.8a5.131,5.131,0,0,1,3.16-4.933A5.34,5.34,0,0,1,35.7,41.182a1.286,1.286,0,0,0,1.744.143,23.335,23.335,0,0,0,3.739-3.7,1.291,1.291,0,0,0-.134-1.763,5.09,5.09,0,0,1,3.443-8.907h.287a1.3,1.3,0,0,0,1.356-1.138,23.71,23.71,0,0,0,0-5.243ZM23.189,30.9A7.713,7.713,0,1,1,30.9,23.182,7.713,7.713,0,0,1,23.189,30.9Z" transform="translate(0 0)"/></g></g></svg>