<svg xmlns="http://www.w3.org/2000/svg" width="26.759" height="28.13" viewBox="0 0 26.759 28.13"><defs><style>.a{fill:#0180a9;}</style></defs><path class="a" d="M21.609,28.065a12.136,12.136,0,0,1-5.327-2.146,29.771,29.771,0,0,1-5.009-4.4,73.805,73.805,0,0,1-5.344-6.084A18.665,18.665,0,0,1,2.88,9.764a8.95,8.95,0,0,1-.332-4.143,7.312,7.312,0,0,1,2.36-4.132A10.072,10.072,0,0,1,6.514.316,2.067,2.067,0,0,1,8.786.353,8.157,8.157,0,0,1,12.26,4.518a1.508,1.508,0,0,1-.166,1.524c-.4.543-.821,1.072-1.226,1.614-.357.481-.728.953-1.046,1.46a1.344,1.344,0,0,0,.014,1.575c.8,1.125,1.578,2.284,2.45,3.355a42.68,42.68,0,0,0,5.22,5.409c.422.363.875.683,1.325,1.013a1.268,1.268,0,0,0,1.364.124A15.339,15.339,0,0,0,21.6,19.8c.63-.4,1.249-.816,1.868-1.212a1.643,1.643,0,0,1,1.716-.034A8.353,8.353,0,0,1,28.9,22.215a2.25,2.25,0,0,1-.2,2.551,7.721,7.721,0,0,1-6.188,3.358,8.787,8.787,0,0,1-.9-.059Z" transform="translate(-2.441 0.006)"/></svg>