<svg xmlns="http://www.w3.org/2000/svg" width="46.333" height="63.638" viewBox="0 0 46.333 63.638"><defs><style>.a{fill:#0180a9;}</style></defs><g transform="translate(-3.44 -272.658)"><path class="a" d="M16.675,1.058A1.389,1.389,0,0,0,15.351,2.5V5.4H4.763A1.389,1.389,0,0,0,3.44,6.845v56.4A1.389,1.389,0,0,0,4.763,64.7H48.449a1.389,1.389,0,0,0,1.324-1.448V6.845A1.389,1.389,0,0,0,48.449,5.4H37.856V2.5a1.389,1.389,0,0,0-1.325-1.446ZM10.06,11.185H43.153a1.389,1.389,0,0,1,1.324,1.446v44.83a1.389,1.389,0,0,1-1.324,1.448H10.06a1.389,1.389,0,0,1-1.324-1.448V12.632a1.389,1.389,0,0,1,1.324-1.446Zm1.324,2.887V56.021H41.828V14.072ZM16.675,24.92H36.531a1.453,1.453,0,0,1,0,2.894H16.675a1.453,1.453,0,0,1,0-2.894Zm0,8.681H36.531a1.455,1.455,0,0,1,0,2.893H16.675a1.3,1.3,0,0,1-1.171-.714,1.563,1.563,0,0,1,0-1.465A1.3,1.3,0,0,1,16.675,33.6Zm0,8.679H36.531a1.453,1.453,0,0,1,0,2.894H16.675a1.453,1.453,0,0,1,0-2.894Z" transform="translate(0 271.6)"/></g></svg>