<svg xmlns="http://www.w3.org/2000/svg" width="70.693" height="70.693" viewBox="0 0 70.693 70.693"><defs><style>.a{fill:#eb4536;stroke:#fff;stroke-miterlimit:10;stroke-width:1.5px;}.b{fill:#fff;}</style></defs><g transform="translate(0.75 0.75)"><rect class="a" width="69.193" height="69.193" rx="23" transform="translate(0)"/><rect class="b" width="7.16" height="23.131" transform="translate(18.909 26.885)"/><path class="b" d="M330.108,199.392a4.268,4.268,0,1,0-4.234-4.269A4.253,4.253,0,0,0,330.108,199.392Z" transform="translate(-307.653 -175.538)"/><path class="b" d="M339.577,208.525c0-3.251,1.5-5.188,4.361-5.188,2.634,0,3.9,1.86,3.9,5.188v12.142h7.126V206.022c0-6.2-3.512-9.192-8.417-9.192a8.063,8.063,0,0,0-6.97,3.821v-3.114h-6.868v23.13h6.868Z" transform="translate(-302.062 -170.652)"/></g></svg>