<svg xmlns="http://www.w3.org/2000/svg" width="616.01" height="182.112" viewBox="0 0 616.01 182.112"><defs><style>.a{fill:#778cc5;}.b{fill:#3c3c3c;}.c{fill:#fff;}.d{fill:none;stroke:#3c3c3c;stroke-miterlimit:10;stroke-width:0.692px;}</style></defs><g transform="translate(670 -452)"><g transform="translate(-670 452)"><g transform="translate(0 0)"><g transform="translate(0 0)"><path class="a" d="M92.972,79.488l-28.24,9.8.015,2.733a12.932,12.932,0,0,1-.713,4.357c-.061.116-.123.234-.181.358l-.153.382c-5.1,14.946-27.067,14.67-31.83-.326l-.111-.312a13.347,13.347,0,0,1-.644-3.682l-.027-1.122.022-.534-.257-33.538V38.83c0-17.948-27.894-18.124-28.192-.058V89.9c0,20.85,10.408,35.7,30.235,43a46.862,46.862,0,0,0,14.424,2.085l3.8-.026h0a54.868,54.868,0,0,0,11.872-2.1c19.926-7.337,30.028-21.779,30.028-42.927Z" transform="translate(-2.66 14.647)"/><g transform="translate(101.393 94.606)"><circle class="b" cx="27.417" cy="27.417" r="27.417"/><g transform="translate(8.447 20.891)"><path class="c" d="M77.665,79.524c0,2.649-2.14,4.5-5.542,4.5a9.385,9.385,0,0,1-5.033-1.487l.835-1.591A6.756,6.756,0,0,0,72,82.357c2.363,0,3.749-1.12,3.749-2.77,0-1.712-1.427-2.588-3.81-2.588H69.983V75.756l4.381-4.32H67.782l-.02-1.773h9.17v1.243l-4.789,4.748.856.061C75.791,75.877,77.665,77.243,77.665,79.524Z" transform="translate(-67.09 -69.579)"/><path class="c" d="M80.807,71.244c-2.975,0-4.422,2.363-4.238,5.929A4.176,4.176,0,0,1,80.7,74.79a4.239,4.239,0,0,1,4.6,4.525c0,2.913-1.976,4.748-4.951,4.748-3.566,0-5.726-2.547-5.726-6.928,0-4.543,2.342-7.52,6.032-7.52a9.371,9.371,0,0,1,4.156,1.038l-.774,1.488A6.405,6.405,0,0,0,80.807,71.244Zm-3.851,8.151a3,3,0,0,0,3.28,2.954,2.95,2.95,0,0,0,3.239-3.057,2.822,2.822,0,0,0-3.118-2.934A3.1,3.1,0,0,0,76.956,79.394Z" transform="translate(-61.774 -69.614)"/><path class="c" d="M94.283,76.828c0,4.646-2.14,7.233-5.97,7.233-3.851,0-5.97-2.588-5.97-7.233s2.119-7.213,5.97-7.213C92.144,69.613,94.283,72.181,94.283,76.828Zm-9.924,0c0,3.769,1.345,5.665,3.953,5.665s3.953-1.9,3.953-5.665c0-3.79-1.345-5.665-3.953-5.665S84.36,73.037,84.36,76.828Z" transform="translate(-56.34 -69.613)"/></g></g><path class="a" d="M112.077,14.514l-.3-.3C103.534,6.512,93.054,1.866,81.7,1.866l-.407.019A52.257,52.257,0,0,0,69.215,3.9c-19.694,7.251-30.1,22.1-30.1,42.954l.012,52.965,28.18-9.75V85.012a40.758,40.758,0,0,0,13.364,2.14h1.979A42.878,42.878,0,0,0,102,82.138l.365-.2c10.875-6.565,19.365-16.5,21.671-29.236C126.588,38.594,121.879,24.8,112.077,14.514ZM81.837,59.4A14.755,14.755,0,1,1,96.592,44.65,14.755,14.755,0,0,1,81.837,59.4Z" transform="translate(23.032 -1.866)"/><g transform="translate(211.299 39.838)"><path class="b" d="M183.065,106.55c-.153,18.717-14.576,28.231-28.23,28.231-14.423,0-28.231-8.439-28.231-25.468V50.7c0-17.029,13.655-25.468,28.076-25.468,13.809,0,28.076,9.513,28.383,28.231h-10.28c0-11.968-8.9-18.257-17.95-18.257-9.359,0-18.258,5.368-18.258,15.495v58.609c.153,10.125,9.052,15.5,18.258,15.5,9.052,0,17.95-6.291,17.95-18.258h10.282Z" transform="translate(-126.604 -25.233)"/><path class="b" d="M211.933,96.118H183.089c-5.217,20.1-7.825,29.764-9.666,37.742H162.838L188.613,32.752c1.534-4.91,5.524-7.518,9.052-7.518,3.376,0,7.518,2.915,8.746,7.365l26.237,101.26H221.754Zm-13.962-59.99L185.389,86.3h24.087Zm-.307-1.381.307,1.381a1.375,1.375,0,0,1,.153-.765Z" transform="translate(-101.066 -25.234)"/><path class="b" d="M218.086,25.864h21.48c14.114,0,24.547,10.433,24.547,24.547V66.829c0,7.518-7.211,18.565-16.571,19.791,10.28,1.383,17.031,12.428,17.031,20.1v26.7H254.6V106.721c0-8.592-9.973-15.036-17.95-15.036H219.16v41.732h-9.82V34.765C209.34,29.546,212.869,25.864,218.086,25.864Zm1.074,9.975v-.614c-.153.307-.307.614-.767.614Zm0,0V81.711h17.491c7.978,0,17.489-6.442,17.489-14.881V50.413a14.47,14.47,0,0,0-14.574-14.574Z" transform="translate(-68.292 -24.79)"/><path class="b" d="M316.674,133.352V85.176H283.841v48.176h-9.973V25.955h9.973v49.4h32.833v-49.4h9.973v107.4Z" transform="translate(-22.813 -24.726)"/><path class="b" d="M367.19,56.308l1.074-13.961L350.773,95.28a7.24,7.24,0,0,1-6.749,4.91,7.709,7.709,0,0,1-6.6-4.45L320.55,41.275l1.074,15.035v77.326H311.8V34.216c-.153-10.433,13.809-10.28,15.955-1.995,6.6,20.1,10.28,37.129,16.11,57.227,6.291-18.87,11.354-39.43,17.338-57.689,2.915-8.746,15.495-8.437,15.955,2.148v99.727h-9.82v-.614h-.153V56.308Z" transform="translate(3.924 -25.008)"/><path class="b" d="M357.765,133.352V25.955h10.126v107.4Z" transform="translate(36.318 -24.726)"/></g><line class="d" y2="149.598" transform="translate(180.587 0.121)"/><g transform="translate(550.193 158.619)"><path class="a" d="M388.362,118.4H328.239a2.852,2.852,0,0,1-2.847-2.847v-17.8a2.852,2.852,0,0,1,2.847-2.847h60.123a2.852,2.852,0,0,1,2.847,2.847v17.8A2.852,2.852,0,0,1,388.362,118.4Z" transform="translate(-325.392 -94.909)"/><g transform="translate(13.016 5.062)"><path class="c" d="M339.1,110.65c2.535,0,4.069-1.553,4.069-4.211V97.973h1.962v8.466c0,3.74-2.269,5.991-6.032,5.991-3.783,0-6.073-2.249-6.073-5.991V97.973h1.962v8.466C334.991,109.1,336.565,110.65,339.1,110.65Z" transform="translate(-333.027 -97.811)"/><path class="c" d="M347.265,99.758c-1.655,0-2.738.675-2.738,1.8,0,3.517,7.914,1.678,7.892,6.87,0,2.474-2.167,4.049-5.275,4.049a8.451,8.451,0,0,1-5.645-2.249l.88-1.7a7.152,7.152,0,0,0,4.785,2.087c1.923,0,3.089-.8,3.089-2.087,0-3.6-7.914-1.655-7.914-6.807,0-2.33,2.025-3.844,5.07-3.844a8.735,8.735,0,0,1,4.724,1.389l-.817,1.758A7.863,7.863,0,0,0,347.265,99.758Z" transform="translate(-327.056 -97.878)"/><path class="c" d="M359.6,108.81h-7.545l-1.493,3.476H348.5l6.357-14.313H356.9l6.34,14.313H361.11Zm-.759-1.778-3.024-6.952-2.987,6.952Z" transform="translate(-322.125 -97.811)"/></g></g></g></g></g></g></svg>