<svg xmlns="http://www.w3.org/2000/svg" width="90.001" height="90.874" viewBox="0 0 90.001 90.874"><defs><style>.a{fill:none;}.b{fill:#fff;}</style></defs><g transform="translate(-5 -4.563)"><path class="a" d="M57.021,81.8a2.145,2.145,0,1,0,1.515.632A2.137,2.137,0,0,0,57.021,81.8Z"/><path class="b" d="M61.589,88.5a6.449,6.449,0,1,1-9.123-9.118l18.74-18.739a25.288,25.288,0,0,0-12.271-4.516c-.1,4.635-6.97,8.374-15.428,8.374S28.18,60.758,28.079,56.123A25.423,25.423,0,0,0,5,81.433c0,14.04,11.381,14,25.418,14H56.6c14.037,0,25.418.036,25.418-14a25.3,25.3,0,0,0-2.459-10.9Z"/><path class="b" d="M43.507,55.323c-8.586,0-15.682-9.307-16.822-21.39H24.351C25.647,47.694,33.727,58.3,43.507,58.3s17.859-10.6,19.156-24.363H60.327C59.187,46.017,52.094,55.323,43.507,55.323Z"/><path class="b" d="M23.439,31.07H63.574a2.83,2.83,0,0,0,0-5.661H62.8A19.292,19.292,0,0,0,52.219,8.194l-1.6,9.065a1.479,1.479,0,0,1-1.455,1.223,1.527,1.527,0,0,1-.259-.022,1.479,1.479,0,0,1-1.2-1.714L49.532,6.388a3.874,3.874,0,0,0-3.29-1.825H40.765a3.875,3.875,0,0,0-3.288,1.825L39.3,16.746a1.478,1.478,0,0,1-1.2,1.714,1.524,1.524,0,0,1-.258.022,1.476,1.476,0,0,1-1.456-1.223l-1.6-9.064A19.287,19.287,0,0,0,24.207,25.409h-.771a2.831,2.831,0,1,0,0,5.661Z"/><path class="b" d="M93,55.067l-4.981,4.979H83.888l-2.975-2.968,0-4.138,4.979-4.979-2-2a10.681,10.681,0,0,0-9.573,14.424L53.894,80.806a4.43,4.43,0,1,0,6.265,6.266L80.58,66.648A10.677,10.677,0,0,0,95,57.073ZM58.54,85.449a2.145,2.145,0,1,1,0-3.021A2.136,2.136,0,0,1,58.54,85.449Z"/></g></svg>