<svg xmlns="http://www.w3.org/2000/svg" width="52.1" height="65.748" viewBox="0 0 52.1 65.748">
  <g id="noun_id_card_2632845" data-name="noun_id card_2632845" transform="translate(-26 -19.6)">
    <path id="Path_17" data-name="Path 17" d="M47.225,34.223h6.5A2.912,2.912,0,0,0,56.648,31.3V22.525A2.912,2.912,0,0,0,53.723,19.6h-6.5A2.912,2.912,0,0,0,44.3,22.525V31.3A2.912,2.912,0,0,0,47.225,34.223Z" transform="translate(1.522)" fill="#fff"/>
    <path id="Path_18" data-name="Path 18" d="M71.168,25.4H59.578v4.116a3.412,3.412,0,0,1,1.841,2.816c0,3.033-4.874,4.658-9.423,4.658s-9.423-1.625-9.423-4.658a3.412,3.412,0,0,1,1.841-2.816V25.4H32.824A6.8,6.8,0,0,0,26,32.224V54.1H40.839v-8.99a1.023,1.023,0,0,1,1.083-1.083H62.069a1.023,1.023,0,0,1,1.083,1.083V54.1H77.992V32.224A6.8,6.8,0,0,0,71.168,25.4Z" transform="translate(0 0.482)" fill="#fff"/>
    <path id="Path_19" data-name="Path 19" d="M45.608,60.365a1.023,1.023,0,0,0,1.083,1.083h7.257a1.023,1.023,0,0,0,1.083-1.083v-3.9a4.766,4.766,0,0,0-9.532,0v3.9Z" transform="translate(1.622 2.669)" fill="#fff"/>
    <path id="Path_20" data-name="Path 20" d="M50.266,51.932A3.466,3.466,0,1,0,46.8,48.466,3.49,3.49,0,0,0,50.266,51.932Z" transform="translate(1.73 2.112)" fill="#fff"/>
    <path id="Path_21" data-name="Path 21" d="M63.152,53.8v8.99a1.023,1.023,0,0,1-1.083,1.083H41.922a1.023,1.023,0,0,1-1.083-1.083V53.8H26V75.68A6.8,6.8,0,0,0,32.824,82.5H71.276A6.8,6.8,0,0,0,78.1,75.68V53.908H63.477A.4.4,0,0,1,63.152,53.8ZM60.228,73.947H43.764a1.083,1.083,0,0,1,0-2.166H60.228a1.023,1.023,0,0,1,1.083,1.083A1.085,1.085,0,0,1,60.228,73.947ZM65.319,68.1a1.023,1.023,0,0,1-1.083,1.083H39.756a1.083,1.083,0,1,1,0-2.166H64.127A1.186,1.186,0,0,1,65.319,68.1Z" transform="translate(0 2.844)" fill="#fff"/>
  </g>
</svg>
