<svg xmlns="http://www.w3.org/2000/svg" width="99.099" height="109.707" viewBox="0 0 99.099 109.707"><defs><style>.a{fill:#fff;fill-rule:evenodd;}</style></defs><path class="a" d="M81.84,57.054A14.875,14.875,0,1,1,96.714,42.18,14.876,14.876,0,0,1,81.84,57.054ZM92.193,44.3H83.96v8.233A10.571,10.571,0,0,0,92.193,44.3Zm-12.473,0H71.487a10.575,10.575,0,0,0,8.233,8.233V44.3Zm-8.233-4.24H79.72V31.827a10.575,10.575,0,0,0-8.233,8.233Zm12.473,0h8.233a10.575,10.575,0,0,0-8.233-8.233V40.06ZM155.493,121.9v15.113H137.9V121.9h17.593ZM96.167,50.929a16.788,16.788,0,0,1-28.654,0V61.34c0,.332-.017.661,28.7.985a9.725,9.725,0,0,1-.051-.985V50.929Zm24.968-6.2h2.094A32.337,32.337,0,0,1,155.494,77V96.217H137.9V77a14.738,14.738,0,0,0-14.672-14.672h-1.947a9.725,9.725,0,0,0,.051-.985V46.671a9.549,9.549,0,0,0-.2-1.94Zm32.9,74.055H139.362a9.676,9.676,0,0,1-9.648-9.648h0a9.675,9.675,0,0,1,9.648-9.648h14.669a9.675,9.675,0,0,1,9.648,9.648h0a9.675,9.675,0,0,1-9.648,9.648ZM64.58,46.671v0Zm53.818,0V61.34a9.675,9.675,0,0,1-9.647,9.648h0A9.675,9.675,0,0,1,99.1,61.34V46.671a9.675,9.675,0,0,1,9.648-9.648h0A9.673,9.673,0,0,1,118.4,46.671Z" transform="translate(-64.58 -27.305)"/></svg>