<?xml version="1.0" encoding="utf-8"?>
<!-- Generator: Adobe Illustrator 25.0.0, SVG Export Plug-In . SVG Version: 6.00 Build 0)  -->
<svg version="1.1" id="Layer_1" xmlns="http://www.w3.org/2000/svg" xmlns:xlink="http://www.w3.org/1999/xlink" x="0px" y="0px"
	 viewBox="0 0 537 187.5" style="enable-background:new 0 0 537 187.5;" xml:space="preserve">
<style type="text/css">
	.st0{fill-rule:evenodd;clip-rule:evenodd;fill:#44688F;}
	.st1{fill-rule:evenodd;clip-rule:evenodd;fill:#80A8CD;}
	.st2{fill-rule:evenodd;clip-rule:evenodd;fill:#FFD76D;}
	.st3{fill-rule:evenodd;clip-rule:evenodd;fill:#7AA456;}
</style>
<path class="st0" d="M239.1,41.8c0,3.1-1,5.7-2.9,8c-2,2.3-4.6,3.5-8.1,3.5c-1.1,0-3-0.1-5.6-0.2c0.2-3.3,0.2-7,0.2-11
	c0-3.8-0.1-7.1-0.2-10h1.8c0.4,0,1.1,0,2,0c0.9,0,1.5,0,1.7,0c3.8,0,6.6,0.9,8.4,2.8C238.2,36.6,239.1,39,239.1,41.8L239.1,41.8z
	 M236.3,42.5c0-2.4-0.8-4.4-2.3-6c-1.5-1.6-3.9-2.4-7.1-2.4c-0.5,0-1.1,0.1-1.9,0.2c0.1,2.5,0.1,5.1,0.1,7.7c0,2.9,0.1,5.9,0.2,8.8
	c0.9,0.2,1.7,0.3,2.5,0.3c2.8,0,5-0.8,6.3-2.5S236.3,44.9,236.3,42.5L236.3,42.5z M261,50.6l-0.1,2.4h-13c0.1-3.3,0.2-7,0.2-11
	c0-3.8-0.1-7.1-0.2-10h12.2l-0.1,2.4c-3-0.1-6.1-0.2-9.4-0.2c0.1,1.7,0.1,3.9,0.1,6.8c2.9,0,5.4-0.1,7.6-0.2v2.4
	c-2.4-0.1-4.9-0.1-7.6-0.1c0,2.8,0,5.4,0.1,7.8C254.4,50.9,257.8,50.8,261,50.6L261,50.6z M283.4,37.2c0,2.5-0.9,4.3-2.8,5.5
	c-1.9,1.2-4.4,1.8-7.5,1.8c-0.4,0-0.7,0-1,0c0,2.3,0.1,5.2,0.3,8.5h-3.1c0.2-3.1,0.2-6.7,0.2-11c0-3.7-0.1-7-0.2-10h2.3
	c0.2,0,1,0,2.1,0c1.2,0,2.2,0,3,0c2.1,0,3.7,0.5,4.9,1.4C282.8,34.3,283.4,35.6,283.4,37.2L283.4,37.2z M280.7,38.2
	c0-2.8-1.9-4.1-5.7-4.1c-0.9,0-2,0.1-3.1,0.2c0.1,1.8,0.1,4.5,0.1,8.2c0.4,0,0.8,0,1.4,0C278.3,42.5,280.7,41.1,280.7,38.2
	L280.7,38.2z M308.1,53h-3.4c0-0.7-0.7-3-2-6.8h-9.3c-1.3,3.8-2,6-2,6.8h-3.3c0-0.4,1.4-3.8,4.2-10.3c2.8-6.5,4.2-10,4.2-10.7h3.7
	c0,0.6,1.3,4.1,4,10.5C306.8,49,308.1,52.5,308.1,53L308.1,53z M301.9,44.1c-2.5-6.3-3.8-9.7-3.8-10.1H298c0,0.3-1.3,3.7-3.9,10.1
	H301.9L301.9,44.1z M331.4,53h-3.1c-1-3.1-1.8-5.1-2.3-6.1c-0.6-1.3-1.3-2.1-2-2.4c-0.6-0.3-1.7-0.4-3.2-0.4c-0.9,0-1.7,0-2.4,0
	c0,3.5,0.1,6.5,0.2,9h-3c0.2-3.3,0.2-7,0.2-11c0-3.8-0.1-7.1-0.2-10h2.3c0.5,0,1.1,0,1.8,0s1.6,0,2.6,0c4.7,0,7.1,1.6,7.1,4.9
	c0,2.7-1.3,4.6-4,5.7v0.2c1.2,0.4,2.1,1.2,2.9,2.5C328.7,46.2,329.8,48.8,331.4,53L331.4,53z M326.4,37.9c0-2.6-1.7-3.8-5.2-3.8
	c-1.2,0-2.3,0.1-3.1,0.2c0.1,1.9,0.1,4.4,0.1,7.6c0.6,0,1.3,0,1.9,0C324.3,41.9,326.4,40.6,326.4,37.9L326.4,37.9z M353,32l-0.1,2.3
	c-2.1-0.1-4.3-0.2-6.6-0.2c0,2.1,0,4.7,0,7.9c0,3.5,0.1,7.2,0.2,11h-3c0.1-3.7,0.2-7.3,0.2-11c0-3.1,0-5.8-0.1-7.9
	c-1.6,0-3.8,0.1-6.7,0.2L337,32L353,32L353,32z M383.1,53h-3c0-2.4-0.2-5.9-0.5-10.4c-0.3-4.5-0.5-7.3-0.5-8.2h-0.2
	c-1.1,3.5-2.4,7.3-4.1,11.4c-1.7,4.1-2.5,6.5-2.5,7.2h-2.2c0-0.8-0.8-3.2-2.3-7.3c-1.5-4.1-2.5-6.9-2.9-8.3c-0.4-1.4-0.7-2.4-0.8-3
	h-0.2c0,1.5-0.2,4.5-0.6,8.9c-0.4,4.5-0.6,7.7-0.6,9.6h-2.8c0-0.1,0.4-3.1,1.1-8.9c0.7-5.8,1.1-9.9,1.1-12.1h4.2
	c0,1.2,0.9,4.1,2.6,8.9c1.7,4.7,2.6,7.6,2.6,8.6h0.2c0-1,1-3.9,2.9-8.6c1.9-4.7,2.9-7.7,2.9-8.8h4.1c0,2.3,0.2,6.3,0.7,12.1
	C382.8,49.9,383.1,52.9,383.1,53L383.1,53z M406,50.6l-0.1,2.4h-13c0.1-3.3,0.2-7,0.2-11c0-3.8-0.1-7.1-0.2-10h12.2l-0.1,2.4
	c-3-0.1-6.1-0.2-9.4-0.2c0.1,1.7,0.1,3.9,0.1,6.8c2.9,0,5.4-0.1,7.6-0.2v2.4c-2.4-0.1-4.9-0.1-7.6-0.1c0,2.8,0,5.4,0.1,7.8
	C399.4,50.9,402.8,50.8,406,50.6L406,50.6z M430.4,53h-2.3c0-0.2-1.8-2.8-5.3-7.7c-3.7-5.2-5.8-8.5-6.3-9.9h-0.2
	c0.2,2.6,0.3,4.8,0.3,6.7c0,3.6,0.1,7.3,0.2,10.9h-2.7c0.2-3.5,0.3-7.2,0.3-11c0-3.8-0.1-7.1-0.3-10h3.1c0,0.3,1.6,2.8,4.9,7.4
	c3.4,4.8,5.3,8,5.8,9.5h0.2c-0.2-2.6-0.3-4.9-0.3-6.7c0-4-0.1-7.4-0.2-10.1h2.8c-0.2,2.8-0.3,6.2-0.3,10
	C430.2,45.9,430.3,49.5,430.4,53L430.4,53z M454.1,32l-0.1,2.3c-2.1-0.1-4.3-0.2-6.6-0.2c0,2.1,0,4.7,0,7.9c0,3.5,0.1,7.2,0.2,11h-3
	c0.1-3.7,0.2-7.3,0.2-11c0-3.1,0-5.8-0.1-7.9c-1.6,0-3.8,0.1-6.7,0.2L438,32L454.1,32L454.1,32z M491.9,42.2c0,3.5-1,6.3-3.1,8.3
	s-4.4,3.1-7.1,3.1c-2.6,0-4.8-1-6.7-2.9c-1.9-1.9-2.9-4.5-2.9-7.7c0-3.5,1-6.3,3.1-8.4s4.4-3.1,7.1-3.1c2.6,0,4.8,1,6.7,2.9
	C490.9,36.4,491.9,39,491.9,42.2L491.9,42.2z M489,42.6c0-2.8-0.7-4.9-2.2-6.5c-1.5-1.5-3.1-2.3-5-2.3c-1.8,0-3.3,0.8-4.7,2.4
	S475,40,475,42.7c0,2.8,0.7,4.9,2.2,6.5c1.5,1.5,3.1,2.3,5,2.3c1.8,0,3.3-0.8,4.7-2.4C488.3,47.4,489,45.2,489,42.6L489,42.6z
	 M513.1,32l-0.1,2.4c-2.9-0.1-6.1-0.2-9.7-0.2c0.1,1.8,0.2,4.2,0.2,7.4c2.5,0,5,0,7.4-0.1v2.3c-2.3-0.1-4.8-0.1-7.4-0.1
	c0,4.2,0.1,7.3,0.2,9.3h-2.9c0.1-3.3,0.2-7,0.2-11c0-3.8-0.1-7.1-0.2-10L513.1,32L513.1,32z"/>
<path class="st0" d="M236.3,144.4c0,3.7-2.6,5.5-7.7,5.5c-1.9,0-3.5-0.2-5-0.6l0.5-2.3c1.7,0.6,3.3,0.9,4.8,0.9c3.4,0,5.1-1,5.1-2.9
	c0-1-0.4-1.8-1.3-2.5c-0.6-0.5-1.7-1.1-3.5-1.8c-1.8-0.8-3.1-1.5-3.8-2.2c-1-0.9-1.5-2.1-1.5-3.5c0-1.5,0.5-2.7,1.5-3.6
	c1.1-1,2.8-1.6,4.9-1.6c2.4,0,4,0.2,4.9,0.5l-0.4,2.4c-1.5-0.5-3.1-0.7-4.8-0.7c-2.6,0-3.8,0.9-3.8,2.6c0,0.8,0.4,1.5,1.1,2.1
	c0.5,0.3,1.5,0.9,3.2,1.6c1.9,0.8,3.2,1.6,4,2.3C235.7,141.4,236.3,142.8,236.3,144.4L236.3,144.4z M249.1,147.4l-0.2,1.9
	c-0.8,0.3-1.5,0.4-2.2,0.4c-1.8,0-3-0.5-3.7-1.4c-0.7-0.9-1-2.5-1-4.9c0-1.5,0-3.5,0-6c-0.6,0-1.4,0-2.5,0.1l0.1-2.2
	c0.9,0.1,1.8,0.1,2.5,0.1c0-0.6,0-2,0.1-4.3l2.3-0.2c-0.2,2.1-0.3,3.6-0.3,4.5c1,0,2.4,0,4.3-0.1l-0.1,2.2c-1.8-0.1-3.2-0.1-4.3-0.1
	c0,1.5,0,3.2,0,5.1c0,2.1,0.2,3.4,0.6,4.1c0.4,0.7,1.2,1,2.4,1C247.7,147.7,248.3,147.6,249.1,147.4L249.1,147.4z M264.2,149.4
	l-2.3,0.1c-0.1-0.5-0.2-1-0.2-1.4h-0.1c-1.2,1.1-2.9,1.7-5,1.7c-1.1,0-2.1-0.3-3-1c-0.8-0.7-1.2-1.6-1.2-2.9c0-1.5,0.6-2.8,1.9-3.7
	c1.3-0.9,3.7-1.4,7.2-1.5c0-0.2,0-0.5,0-0.8c0-1.2-0.3-2-1-2.5c-0.7-0.4-1.6-0.6-3-0.6c-1.6,0-3.1,0.2-4.6,0.6l0.3-2.1
	c1.5-0.4,3.2-0.6,5.2-0.6c1.8,0,3.1,0.4,4.1,1.1c1,0.7,1.5,2,1.5,3.7c0,0.5,0,1.3-0.1,2.6c0,1.2-0.1,2.1-0.1,2.5
	C263.8,146.4,264,148,264.2,149.4L264.2,149.4z M261.6,146.5c0-1.5-0.1-2.9-0.1-4.1c-1.9,0-3.3,0.1-4.3,0.4
	c-1.6,0.5-2.5,1.4-2.5,2.9c0,1.4,1,2,2.9,2C259.3,147.7,260.6,147.3,261.6,146.5L261.6,146.5z M277.4,147.4l-0.2,1.9
	c-0.8,0.3-1.5,0.4-2.2,0.4c-1.8,0-3-0.5-3.7-1.4c-0.7-0.9-1-2.5-1-4.9c0-1.5,0-3.5,0-6c-0.6,0-1.4,0-2.5,0.1l0.1-2.2
	c1,0.1,1.8,0.1,2.5,0.1c0-0.6,0-2,0.1-4.3l2.3-0.2c-0.2,2.1-0.3,3.6-0.3,4.5c1,0,2.4,0,4.3-0.1l-0.1,2.2c-1.8-0.1-3.2-0.1-4.3-0.1
	c0,1.5,0,3.2,0,5.1c0,2.1,0.2,3.4,0.6,4.1c0.4,0.7,1.2,1,2.4,1C276,147.7,276.6,147.6,277.4,147.4L277.4,147.4z M293.6,140.6
	c0,0.4,0,1-0.1,1.7l-10.3,0.2c0.1,1.5,0.7,2.7,1.7,3.7c1,1,2.4,1.5,4.1,1.5c1.5,0,2.9-0.2,4.3-0.6l-0.2,2.1c-1,0.4-2.4,0.6-4.2,0.6
	c-2.6,0-4.6-0.7-5.9-2.1c-1.4-1.4-2-3.1-2-5.2c0-2.2,0.6-4,1.9-5.6c1.2-1.6,2.9-2.4,5-2.4c1.9,0,3.4,0.6,4.4,1.7
	C293.1,137.4,293.6,138.9,293.6,140.6L293.6,140.6z M291.1,140.7c0-2.8-1.2-4.2-3.5-4.2c-2.4,0-3.8,1.5-4.2,4.4L291.1,140.7
	L291.1,140.7z M320.7,141.9c0,2.6-0.7,4.6-2.2,6c-1.5,1.4-3.2,2.1-5.2,2.1c-1.9,0-3.4-0.6-4.8-1.9c-1.3-1.3-2-3-2-5.4
	c0-2.6,0.7-4.6,2.2-6c1.5-1.5,3.2-2.2,5.2-2.2c1.9,0,3.4,0.6,4.8,1.9C320,137.8,320.7,139.6,320.7,141.9L320.7,141.9z M318.1,142.4
	c0-1.6-0.4-2.9-1.2-4.1c-0.8-1.2-1.9-1.8-3.3-1.8c-1.4,0-2.5,0.6-3.3,1.7c-0.8,1.1-1.2,2.5-1.2,4c0,1.6,0.4,3,1.2,4.2
	c0.8,1.2,1.9,1.8,3.4,1.8c1.4,0,2.5-0.6,3.3-1.7C317.7,145.2,318.1,143.9,318.1,142.4L318.1,142.4z M333.7,128.2l-0.4,2
	c-0.6-0.1-1.2-0.2-1.8-0.2c-0.9,0-1.5,0.4-1.9,1.1c-0.3,0.7-0.5,2.2-0.5,4.5c1,0,2.4,0,4.1-0.1l-0.1,2.2c-2-0.1-3.4-0.1-4.1-0.1
	c0,4.5,0.1,8.5,0.2,11.9h-2.7c0.1-3.3,0.2-7.3,0.2-11.9c-0.6,0-1.7,0-3.2,0.1l0.1-2.2c1.4,0.1,2.4,0.1,3.1,0.1
	c0-2.6,0.4-4.6,1.1-5.8c0.7-1.2,1.9-1.8,3.5-1.8C332.2,127.9,332.9,128,333.7,128.2L333.7,128.2z M370.1,129.9c0,0.7-1.1,4-3.2,9.8
	c-2.2,5.8-3.2,9-3.2,9.7h-1.9c0-0.9-0.8-3.4-2.3-7.6c-1.7-4.6-2.7-7.5-2.9-8.8h-0.2c-0.2,1.4-1.1,4.4-2.6,9
	c-1.4,4.3-2.1,6.8-2.1,7.5h-1.9c0-1-1-4.4-3.2-10.2c-2.1-5.8-3.2-8.9-3.2-9.3h2.8c0,0.4,0.8,3,2.3,7.7c1.5,4.8,2.3,7.7,2.3,8.7h0.2
	c0-1.1,0.8-4,2.3-8.7c1.5-4.7,2.3-7.3,2.3-7.8h2.6c0,0.6,0.8,3.4,2.4,8.3c1.6,4.9,2.4,7.6,2.4,8.2h0.2c0-1,0.7-3.7,2.2-8.3
	c1.4-4.6,2.2-7.3,2.2-8.2L370.1,129.9L370.1,129.9z M384.1,149.4l-2.4,0.1c-0.1-0.5-0.2-1-0.2-1.4h-0.1c-1.2,1.1-2.9,1.7-5,1.7
	c-1.1,0-2.1-0.3-3-1c-0.8-0.7-1.2-1.6-1.2-2.9c0-1.5,0.6-2.8,1.9-3.7c1.3-0.9,3.7-1.4,7.2-1.5c0-0.2,0-0.5,0-0.8c0-1.2-0.3-2-1-2.5
	c-0.7-0.4-1.6-0.6-3-0.6c-1.6,0-3.1,0.2-4.6,0.6l0.3-2.1c1.5-0.4,3.2-0.6,5.2-0.6c1.8,0,3.1,0.4,4.1,1.1c1,0.7,1.5,2,1.5,3.7
	c0,0.5,0,1.3-0.1,2.6c0,1.2-0.1,2.1-0.1,2.5C383.7,146.4,383.8,148,384.1,149.4L384.1,149.4z M381.5,146.5c0-1.5-0.1-2.9-0.1-4.1
	c-1.9,0-3.3,0.1-4.3,0.4c-1.6,0.5-2.5,1.4-2.5,2.9c0,1.4,1,2,2.9,2C379.2,147.7,380.5,147.3,381.5,146.5L381.5,146.5z M398.6,145.4
	c0,2.9-1.9,4.4-5.6,4.4c-1.6,0-3.2-0.2-4.6-0.5l0.5-2.2c1.3,0.5,2.7,0.8,4.2,0.8c2.2,0,3.3-0.6,3.3-1.9c0-0.6-0.2-1.1-0.7-1.4
	c-0.5-0.4-1.3-0.8-2.4-1.2c-1.4-0.6-2.4-1.1-3.1-1.6c-0.9-0.8-1.4-1.7-1.4-2.8c0-1.1,0.4-2.1,1.3-2.9c0.9-0.8,2.2-1.2,3.9-1.2
	c1.7,0,3.1,0.1,4.1,0.4l-0.5,2.2c-1.1-0.4-2.3-0.6-3.7-0.6c-1.9,0-2.9,0.6-2.9,1.7c0,0.6,0.2,1,0.6,1.4c0.4,0.3,1.3,0.8,2.5,1.3
	c1.3,0.5,2.3,1,3,1.6C398.1,143.3,398.6,144.3,398.6,145.4L398.6,145.4z M416.3,149.4h-2.7c0.2-2.6,0.3-5.4,0.3-8.5
	c0-1.6-0.3-2.7-0.9-3.3c-0.6-0.6-1.4-0.8-2.5-0.8c-1.5,0-2.9,0.5-4.2,1.5c0,5.4,0,9.1,0.1,11h-2.6c0.1-2.6,0.1-6.4,0.1-11.2
	c0-4.2-0.1-7.5-0.4-9.9l2.8-0.1c-0.1,3-0.1,5.9-0.1,8.5h0.1c1.5-1.3,3.1-2,4.9-2c1.6,0,2.8,0.4,3.7,1.1c0.9,0.7,1.3,2,1.3,3.9
	c0,0.2,0,0.6,0,1.1c0,0.6,0,1,0,1.5C416.2,143.8,416.3,146.1,416.3,149.4L416.3,149.4z M424.1,149.4h-2.7c0.1-2,0.2-4.3,0.2-6.8
	c0-2.9-0.2-5.3-0.5-7.3l3-0.4c-0.1,2.1-0.2,4.6-0.2,7.7C423.9,145,423.9,147.3,424.1,149.4L424.1,149.4z M424.7,130.7
	c0,0.5-0.2,0.9-0.5,1.3c-0.3,0.4-0.8,0.6-1.4,0.6c-0.5,0-0.9-0.2-1.2-0.5c-0.3-0.3-0.4-0.7-0.4-1.2c0-0.5,0.2-0.9,0.5-1.3
	c0.3-0.4,0.8-0.6,1.4-0.6c0.5,0,0.9,0.2,1.2,0.5C424.6,129.9,424.7,130.3,424.7,130.7L424.7,130.7z M441.8,149.4h-2.7
	c0.2-2.6,0.3-5.5,0.3-8.6c0-1.5-0.3-2.6-0.9-3.1c-0.6-0.6-1.5-0.8-2.7-0.8c-1.4,0-2.7,0.5-3.9,1.5c0,3.4,0,7.1,0.1,11h-2.7
	c0.2-3.4,0.3-5.8,0.3-7.4c0-2.3-0.2-4.6-0.7-6.8l2.6-0.4l0.3,1.8h0.1c1.5-1.3,3.1-2,4.7-2c1.7,0,2.9,0.4,3.8,1.1
	c0.9,0.7,1.4,2,1.4,3.9c0,0.2,0,0.6,0,1.1c0,0.6,0,0.9,0,1.1C441.8,143.6,441.8,146.1,441.8,149.4L441.8,149.4z M461,133.3l-0.2,2.1
	c-1.9,0-2.9,0.3-3.1,0.9v0.1c0.6,0.8,1,1.7,1,2.7c0,1.6-0.5,2.8-1.5,3.9c-1,1-2.6,1.5-4.7,1.5c-0.9,0-1.7-0.1-2.3-0.3
	c-0.5,0.3-0.7,0.8-0.7,1.3c0,0.6,0.3,1.1,0.9,1.3c0.7,0.3,2.3,0.4,4.6,0.4c3.8,0,5.7,1.3,5.7,3.8c0,1.8-0.7,3.3-2.2,4.5
	c-1.5,1.2-3.4,1.8-5.7,1.8c-2.4,0-4.1-0.4-5.1-1.3c-1-0.9-1.5-1.9-1.5-3.1c0-1.1,0.3-2,0.8-2.7c0.5-0.7,1.1-1.1,1.9-1.3v-0.1
	c-0.8-0.4-1.2-1.1-1.2-2.2c0-1,0.5-1.8,1.5-2.6v-0.1c-0.5-0.3-1-0.7-1.5-1.3c-0.5-0.6-0.7-1.4-0.7-2.3c0-1.6,0.5-2.9,1.6-3.9
	s2.6-1.5,4.5-1.5c1.6,0,2.9,0.3,3.8,0.9h0.2c0.3-1.7,1.2-2.5,2.5-2.5C460,133.1,460.6,133.2,461,133.3L461,133.3z M458.3,151.9
	c0-0.9-0.3-1.6-1-2c-0.7-0.4-2-0.6-3.9-0.6c-1.3,0-2.4-0.1-3.5-0.2c-1.2,0.6-1.8,1.5-1.8,2.6c0,2.4,1.6,3.6,4.8,3.6c1.7,0,3-0.3,4-1
	C457.8,153.8,458.3,153,458.3,151.9L458.3,151.9z M456.2,139.7c0-1.1-0.3-1.9-1-2.5c-0.7-0.6-1.6-0.9-2.6-0.9c-1,0-1.8,0.3-2.5,0.8
	c-0.7,0.6-1,1.4-1,2.4c0,1.1,0.3,1.9,1,2.5c0.7,0.6,1.6,0.9,2.7,0.9c1,0,1.8-0.3,2.5-0.8C455.9,141.5,456.2,140.7,456.2,139.7
	L456.2,139.7z M473.4,147.4l-0.2,1.9c-0.8,0.3-1.5,0.4-2.2,0.4c-1.8,0-3-0.5-3.7-1.4c-0.7-0.9-1-2.5-1-4.9c0-1.5,0-3.5,0-6
	c-0.6,0-1.4,0-2.5,0.1l0.1-2.2c0.9,0.1,1.8,0.1,2.5,0.1c0-0.6,0-2,0.1-4.3l2.3-0.2c-0.2,2.1-0.3,3.6-0.3,4.5c1,0,2.4,0,4.3-0.1
	l-0.1,2.2c-1.8-0.1-3.2-0.1-4.3-0.1c0,1.5,0,3.2,0,5.1c0,2.1,0.2,3.4,0.6,4.1c0.4,0.7,1.2,1,2.4,1
	C472,147.7,472.6,147.6,473.4,147.4L473.4,147.4z M491,141.9c0,2.6-0.7,4.6-2.2,6c-1.5,1.4-3.2,2.1-5.2,2.1c-1.9,0-3.4-0.6-4.8-1.9
	c-1.3-1.3-2-3-2-5.4c0-2.6,0.7-4.6,2.2-6c1.5-1.5,3.2-2.2,5.2-2.2c1.9,0,3.4,0.6,4.8,1.9C490.3,137.8,491,139.6,491,141.9L491,141.9
	z M488.4,142.4c0-1.6-0.4-2.9-1.2-4.1c-0.8-1.2-1.9-1.8-3.3-1.8c-1.4,0-2.5,0.6-3.3,1.7c-0.8,1.1-1.2,2.5-1.2,4c0,1.6,0.4,3,1.2,4.2
	c0.8,1.2,1.9,1.8,3.4,1.8c1.4,0,2.5-0.6,3.3-1.7C488,145.2,488.4,143.9,488.4,142.4L488.4,142.4z M508.2,149.4h-2.7
	c0.2-2.6,0.3-5.5,0.3-8.6c0-1.5-0.3-2.6-0.9-3.1c-0.6-0.6-1.5-0.8-2.7-0.8c-1.4,0-2.7,0.5-3.9,1.5c0,3.4,0,7.1,0.1,11h-2.7
	c0.2-3.4,0.3-5.8,0.3-7.4c0-2.3-0.2-4.6-0.7-6.8l2.6-0.4l0.3,1.8h0.1c1.5-1.3,3.1-2,4.7-2c1.7,0,2.9,0.4,3.8,1.1
	c0.9,0.7,1.4,2,1.4,3.9c0,0.2,0,0.6,0,1.1c0,0.6,0,0.9,0,1.1C508.2,143.6,508.2,146.1,508.2,149.4L508.2,149.4z"/>
<path class="st0" d="M512.1,70.4c0,0.1,0,1.2-0.1,1.6c-0.5,1.6-2.2,4.3-4.1,6.9c-3.3,4.7-6.5,9.2-7.6,11.1c-2.4,4.3-3.8,7.3-3.8,9.7
	c0,4.4,0.2,10,0.5,14.7h-8c0.3-4.4,0.4-9.3,0.4-14.3c0-2.6-1.2-6.3-3.7-10.8c-1.4-2.6-3.7-6.1-7-10.9c-1.7-2.6-3.4-5.1-4-6.6
	c-0.1-0.4-0.1-1.1,0-1.3h8.4c0,0.1-0.1,0.6,0,0.9c0.6,1.5,2.7,5.2,5.6,10c1.1,1.9,4,6.8,5.1,9.8c1-2.8,1.9-4.4,4.8-9.4
	c2.9-5.2,5.4-9.6,5.4-10.5v-0.8L512.1,70.4L512.1,70.4z M468.7,113.2c-3.5,1.2-7.3,2-11.8,2c-7.5,0-13.6-1.9-17.9-6.1
	c-4.1-4.1-6.3-9.1-6.3-15.8c0-6,2.1-11.9,6.7-16.6c4.3-4.4,10.1-6.9,18.3-6.9c2.7,0,6,0.5,8.6,1.2l-1.2,7.1c-3.6-1-7.3-1.6-9.5-1.6
	c-4.3,0-8.7,1.3-11.4,4.4c-2.8,3.1-4.1,6.8-4.1,11.4c0,4.7,1.5,8.3,4.7,11.8c2.8,3.1,7.1,5,12.9,5c1.1,0,1.9-0.1,4-0.4
	c-0.3-2.2-0.4-4.2-0.4-7.2c0-2.5-0.3-5.8-0.6-8.2h7.8c-0.2,2.8-0.4,6.7-0.4,9.9C468.4,104.6,468.5,108.4,468.7,113.2L468.7,113.2z
	 M377.7,107.9l-0.3,6.5h-27.5c0.3-5.3,0.5-13.6,0.5-23c0-8.1-0.2-15.8-0.5-21h7.9c-0.3,4.3-0.5,12.1-0.5,21c0,7.3-0.1,12.5-0.3,17
	C363.4,108.3,370.6,108.1,377.7,107.9L377.7,107.9z M331.9,92.4c0-5.5-1.4-9.2-4.3-12.3c-2.9-3-6.2-4.4-9.4-4.4
	c-3.5,0-6.4,1.3-9.1,4.5c-2.7,3.2-4.1,7.2-4.1,12.5c0,5.6,1.5,9.7,4.4,12.6c2.6,2.6,6.1,4.2,9.8,4.2c3.4,0,6.6-2,8.7-4.6
	C330.6,101.4,331.9,97.7,331.9,92.4L331.9,92.4z M339.5,91.6c0,7.1-2.2,13.7-6.5,17.6c-3.9,3.5-8.5,6.5-14.8,6.5
	c-6.1,0-10.4-2.3-14.4-6c-4.4-4.2-6.3-9.7-6.3-16.2c0-7,1.8-12.5,6.6-17.5c4-4.2,9-6.3,15-6.3c5.1,0,9.8,1.8,14.1,5.9
	C337.1,79.2,339.5,85.1,339.5,91.6L339.5,91.6z M291.5,107.2l-0.6,6.6c-2.5,0.9-6.3,1.4-9.8,1.4c-7.5,0-13.6-2.1-17.3-6.3
	c-3.7-4.1-6.1-9.7-6.1-15.6c0-6.1,3-12.6,7.2-17c4.1-4.4,10.2-6.6,17.2-6.6c1.9,0,5.1,0.6,7.2,1.2l-1.2,6.8
	c-2.5-0.8-5.5-1.3-7.4-1.3c-5.2,0-8.8,1.4-11.5,4.6c-2.7,3.2-3.9,7.1-3.9,11.4c0,4.7,1.4,8.4,4.5,11.7c3,3.3,7.4,4.8,12.3,4.8
	C285.4,108.9,288.1,108.1,291.5,107.2L291.5,107.2z M251.4,107.7l-0.3,6.6H223c0.2-6.6,0.5-18.7,0.5-23.1c0-6.5-0.2-15.2-0.5-20.9
	h26.6l-0.3,6.6c-5.9-0.3-12.5-0.5-19.2-0.5c0.1,3.3,0.2,6.3,0.2,12c2.4,0,4.9,0,7.3-0.1c3.1-0.1,6-0.2,8.3-0.4v6.6
	c-4.8-0.1-10.2-0.3-15.6-0.3c0,5.5,0.1,9.2,0.3,14C237.6,108.3,244.9,108.1,251.4,107.7L251.4,107.7z M416.9,92.4
	c0-5.5-1.3-9.2-4.3-12.3c-2.9-3-6.2-4.4-9.4-4.4c-3.5,0-6.4,1.3-9.1,4.5c-2.7,3.2-4.1,7.2-4.1,12.5c0,5.6,1.5,9.7,4.4,12.6
	c2.6,2.6,6.1,4.2,9.8,4.2c3.4,0,6.6-2,8.7-4.6C415.6,101.4,416.9,97.7,416.9,92.4L416.9,92.4z M424.5,91.6c0,7.1-2.2,13.7-6.5,17.6
	c-3.9,3.5-8.5,6.5-14.8,6.5c-6.1,0-10.4-2.3-14.4-6c-4.4-4.2-6.3-9.7-6.3-16.2c0-7,1.8-12.5,6.6-17.5c4-4.2,9-6.3,15-6.3
	c5.1,0,9.8,1.8,14.1,5.9C422.1,79.2,424.5,85.1,424.5,91.6L424.5,91.6z"/>
<path class="st1" d="M80.7,71.5h121.5L202,31.2H73.4c0.4,2.8-0.4,6,1.2,8.4c0.8,1.2,3.2-1.3,4.3-0.4c0.9,0.7-0.3,2.4-0.4,3.6
	c-0.1,2,0.7,4.3-0.2,6.1c-0.5,1-3.3-0.6-3.1,0.4c0.5,2.6,3.7,3.9,4.5,6.4c0.3,1-2,1.5-1.8,2.6c0.6,3.3,4.9,6,4,9.3L80.7,71.5
	L80.7,71.5z"/>
<path class="st1" d="M29.5,71.5H72c0.2-1.5,0.8-3,0.5-4.5c-0.4-2.1-0.9-4.6-2.5-5.9c-0.8-0.6-1.3,2.1-2.3,1.9
	c-2.1-0.2-3.6-2.8-5.7-2.9c-2.2-0.2-4.2,2.8-6.3,2.2l-26.6-7.1c-2.5-0.7-0.7,1.2-0.7,1.6L27.3,61l-0.2,5l1.1,3.5L29.5,71.5
	L29.5,71.5z"/>
<path class="st2" d="M125,51.5c0-6,5-11,11-11c6,0,11,5,11,11c0,6-5,11-11,11C130,62.5,125,57.6,125,51.5L125,51.5z"/>
<path class="st3" d="M202.3,73.1l0.3,40.9h-162l-0.2-4.1l-1.9-3.9L37,103l-1.3-5l-1.2-7.1c31.1-9.4,40.8-4.5,40.8-4.5
	s12.8,6.3,22,2.4c19.1-8.3,33-5,33-5s23.9,9.5,33.5,1.5c9.7-7.7,15.3-7.5,22.9-9.2H31.6l-0.4-1.8l-0.8-1.3H202.3L202.3,73.1z"/>
<path class="st0" d="M202.6,115.6l0.1,6.9c0.1,1.3,0.2,2.7,0.7,3.9c1.3,3.2,3,4.6,3.8,7.9c0.3,1.4-2.2,3-1,4.5c1.8,2.2,2,4-0.3,4
	l-52.8,0.1c-7,2-14,4-21,5.9c-1.1,0.7-2.2,1.3-3.4,1.9c-2.5,1.3-4.6,2.7-6.8,2.7c-2.2,0-4.4-2.5-7.3-2.3c-2.8,0.1-4.5,4-7.7,4.1
	c-3.1,0.2-5.8-4.4-8.5-4.4h-3.4c-4,0-11.9,4.9-15.9,5c-4,0.2-10.1-2.3-11.2-6.6l-1.6-6.2l-2.7-6.2l-4.1-4.3
	c-0.4,0.1-0.8,0.1-1.2,0.2c-0.7,0-1.1,0-1.7-0.3c-0.7-0.3-1.4-0.7-2-1.3l-1.1-1l-9.3-0.7c-2-0.1-3.4-3.6-3.3-7l-0.4-6.8L202.6,115.6
	L202.6,115.6z M105.9,133.8H73c0,0,2,2.2,5.2,2.5c2.9,0.1,7.6-1.4,11.1-1.2c3.5,0.1,7.2,1.7,9.6,1.3
	C100.9,136.3,105.9,133.8,105.9,133.8L105.9,133.8z M194.6,118.6h-89.9c0,0,5.2,2.9,10.8,4.1c5.7,1.3,16.5-1.2,19.5-0.7
	c3.1,0,4.9,1.3,16.3,3.2c8.2,1.2,17.3-2.5,17.3-2.5s4.8-3,17.9-1.7C186.5,121.1,188,121.6,194.6,118.6L194.6,118.6z"/>
</svg>
