<svg xmlns="http://www.w3.org/2000/svg" width="51.1" height="63.656" viewBox="0 0 51.1 63.656"><defs><style>.a{fill:#0180a9;}</style></defs><g id="icon-bat-hab" transform="translate(-8.568 -5)"><path class="a" d="M27.555,38.055A3.841,3.841,0,0,1,27,38.01a12.24,12.24,0,0,0,.148,1.729c.353,2.314,1.265,4.1,2.1,4.238a25.307,25.307,0,0,0,4.85,8.84A12.069,12.069,0,0,0,38,55.827a6.948,6.948,0,0,0,5.989,0A12.153,12.153,0,0,0,48,52.674a25.43,25.43,0,0,0,4.736-8.723c.8-.271,1.65-2,1.994-4.211a12.285,12.285,0,0,0,.146-1.688c-.022,0-.044,0-.067,0H27.555Z" transform="translate(-7.067 -9.662)"/><path class="a" d="M17.258,78.712v-13.5a9.06,9.06,0,0,0-4.936,3.674,23.608,23.608,0,0,0-3.544,8.24,7.213,7.213,0,0,0-.052,3.229,6.624,6.624,0,0,0,.437,1.395c.783,1.7,2.671,3.007,5.205,4V83.778A5.638,5.638,0,0,1,17.258,78.712Z" transform="translate(0 -17.625)"/><path class="a" d="M54.19,77.8V63.96a7.191,7.191,0,0,1-1.632-.3c-.173,1.652-4.356,7.076-7.095,10.481l-1.188-5.255c.892-.605,1.088-1.937,1.088-3.044h-4.5c0,1.1.194,2.418,1.068,3.028l-1.169,5.267c-2.741-3.4-6.924-8.828-7.094-10.478a7.18,7.18,0,0,1-1.63.3V77.794H54.19Z" transform="translate(-8.995 -17.169)"/><path class="a" d="M82.025,68.556a8.829,8.829,0,0,0-4.686-3.343v13.5a5.637,5.637,0,0,1,2.889,5.066v1.975c2.535-.993,4.421-2.3,5.2-4a6.528,6.528,0,0,0,.415-1.26,7.26,7.26,0,0,0-.03-3.359A22.786,22.786,0,0,0,82.025,68.556Z" transform="translate(-26.361 -17.625)"/><path class="a" d="M55.885,23.444a2.076,2.076,0,0,0-1.923-2.2h-.524A15.39,15.39,0,0,0,46.25,7.828l-1.087,7.064a1.052,1.052,0,0,1-.987.952A.894.894,0,0,1,44,15.825a1.145,1.145,0,0,1-.813-1.335l1.239-8.068A2.573,2.573,0,0,0,42.192,5h-3.72A2.573,2.573,0,0,0,36.24,6.422l1.239,8.068a1.147,1.147,0,0,1-.814,1.335.894.894,0,0,1-.177.018,1.052,1.052,0,0,1-.987-.952L34.415,7.829A15.383,15.383,0,0,0,27.227,21.24H26.7a2.076,2.076,0,0,0-1.922,2.2,2.077,2.077,0,0,0,1.922,2.2H53.962A2.078,2.078,0,0,0,55.885,23.444Z" transform="translate(-6.215 0)"/><ellipse class="a" cx="2.393" cy="2.744" rx="2.393" ry="2.744" transform="translate(17.37 63.168)"/><ellipse class="a" cx="2.393" cy="2.744" rx="2.393" ry="2.744" transform="translate(45.682 63.168)"/></g></svg>