<svg xmlns="http://www.w3.org/2000/svg" width="46.334" height="63.638" viewBox="0 0 46.334 63.638"><defs><style>.a{fill:#0180a9;}</style></defs><g id="icon-bat-awards" transform="translate(-59.822 -0.008)"><rect class="a" width="23.274" height="4.882" transform="translate(71.446 13.544)"/><rect class="a" width="13.395" height="4.879" transform="translate(71.446 23.301)"/><path class="a" d="M186.806,296.561a9.521,9.521,0,0,0-9.27,9.753,9.855,9.855,0,0,0,4.628,8.448v8.572l4.639-4.316,4.638,4.319v-8.576a9.847,9.847,0,0,0,4.628-8.448A9.52,9.52,0,0,0,186.806,296.561Zm0,14.667a4.883,4.883,0,1,1,4.631-4.875A4.759,4.759,0,0,1,186.806,311.228Z" transform="translate(-103.813 -259.692)"/><path class="a" d="M59.822.008V59.874H71.5V55H64.457V4.883h37.064V55H94.477v4.874h11.679V.008Z"/></g></svg>