<svg xmlns="http://www.w3.org/2000/svg" width="52.146" height="73" viewBox="0 0 52.146 73"><defs><style>.a{fill:#0180a9;}</style></defs><g id="icon-bat-ewp" transform="translate(-17.855 -5)"><path class="a" d="M54.374,47.846c-.068,3.137-4.719,5.67-10.446,5.67s-10.378-2.532-10.446-5.67A17.213,17.213,0,0,0,17.855,64.983c0,6.9,4.061,8.777,9.922,9.289V64.128a3.993,3.993,0,0,1,4.092-3.875H55.987a3.993,3.993,0,0,1,4.091,3.875V74.272C65.939,73.76,70,71.882,70,64.983A17.21,17.21,0,0,0,54.374,47.846Z" transform="translate(0 -8.093)"/><path class="a" d="M47,43.993c-5.621,0-10.3-5.893-11.3-13.679H34.117C35.225,39.239,40.571,46.007,47,46.007s11.775-6.768,12.884-15.693H58.3C57.3,38.1,52.623,43.993,47,43.993Z" transform="translate(-3.072 -4.782)"/><path class="a" d="M32.8,22.948H59.977a1.917,1.917,0,0,0,0-3.833h-.522A13.065,13.065,0,0,0,52.288,7.458L51.207,13.6a1,1,0,0,1-1.974-.348l1.237-7.013A2.62,2.62,0,0,0,48.243,5H44.534a2.624,2.624,0,0,0-2.226,1.236l1.236,7.013a1,1,0,0,1-.813,1.161,1.065,1.065,0,0,1-.175.015,1,1,0,0,1-.984-.828L40.49,7.458a13.058,13.058,0,0,0-7.166,11.656H32.8a1.917,1.917,0,0,0,0,3.833Z" transform="translate(-2.461)"/><path class="a" d="M58.9,66.327H50.066v5.8a1.293,1.293,0,0,1-1.293,1.292H44.908a1.293,1.293,0,0,1-1.292-1.292v-5.8H34.782a1.412,1.412,0,0,0-1.508,1.292V88.292a1.413,1.413,0,0,0,1.508,1.292H58.9a1.413,1.413,0,0,0,1.507-1.292V67.619A1.411,1.411,0,0,0,58.9,66.327Zm-1.076,20.35H52.655V84.738h5.168Z" transform="translate(-2.912 -11.584)"/></g></svg>