<svg xmlns="http://www.w3.org/2000/svg" width="51.832" height="69.037" viewBox="0 0 51.832 69.037"><defs><style>.a{fill:#0180a9;}</style></defs><g id="icon-bat-cstat" transform="translate(-8 -2.025)"><g transform="translate(46.874 2.946)"><path class="a" d="M35,13.132V2.665c.144.115.288.216.432.346L46.705,14.284a4.681,4.681,0,0,1,.331.417H36.44A1.513,1.513,0,0,1,35,13.132Z" transform="translate(-35 -2.665)"/></g><g transform="translate(8 2.025)"><path class="a" d="M48.313,17.862a4.389,4.389,0,0,1-4.319-4.449V2.025H12.319A4.332,4.332,0,0,0,8,6.344v60.4a4.332,4.332,0,0,0,4.319,4.319H55.512a4.323,4.323,0,0,0,4.319-4.319V17.862ZM31.357,25.138h4.581v4.581H31.357V25.138Zm10.081,29.4H28.479v-2.88h4.844V35.826h-3.4v-2.88H36.2V51.664h5.235v2.88Z" transform="translate(-8 -2.025)"/></g></g></svg>