<svg xmlns="http://www.w3.org/2000/svg" width="51.1" height="65.073" viewBox="0 0 51.1 65.073"><defs><style>.a{fill:#0180a9;}</style></defs><path id="tcs-ico-links" class="a" d="M24.954-31.1c4.343,0,7.75-4.733,7.75-10.707,0-6.093-3.407-10.826-7.75-10.826H16.82c-4.3,0-7.708,4.733-7.708,10.826,0,5.857,3.407,10.589,7.708,10.707v-4.437c-2.512-.059-4.514-2.84-4.514-6.271,0-3.609,2-6.389,4.514-6.389h8.133c2.555,0,4.556,2.78,4.556,6.33s-2,6.33-4.556,6.33Zm9.283-13.488v4.437c2.555,0,4.556,2.78,4.556,6.33s-2,6.33-4.556,6.33H26.1c-2.512,0-4.514-2.78-4.514-6.389,0-3.431,2-6.212,4.514-6.271v-4.437c-4.3.118-7.708,4.851-7.708,10.707,0,6.093,3.407,10.826,7.708,10.826h8.133c4.343,0,7.75-4.733,7.75-10.826C41.987-39.854,38.58-44.587,34.237-44.587ZM2.129-8.264C0-8.264,0-8.264,0-11.222V-70.379c0-2.958,0-2.958,2.129-2.958H14.9L18.1-67.421H48.97c2.129,0,2.129,0,2.129,2.958v53.242c0,2.958,0,2.958-2.129,2.958Zm0,0" transform="translate(0 73.337)"/></svg>