<svg xmlns="http://www.w3.org/2000/svg" xmlns:xlink="http://www.w3.org/1999/xlink" width="480" height="64" viewBox="0 0 480 64">
  <defs>
    <clipPath id="clip-WCS_Logo">
      <rect width="480" height="64"/>
    </clipPath>
  </defs>
  <g id="WCS_Logo" clip-path="url(#clip-WCS_Logo)">
    <g id="Group_2129" data-name="Group 2129" transform="translate(-281 -795.5)">
      <g id="Group_2144" data-name="Group 2144" transform="translate(281 795.5)">
        <g id="Group_2128" data-name="Group 2128" transform="translate(78 0)">
          <text id="Washington_Certification_Services" data-name="Washington Certification Services" transform="translate(0 38)" fill="#fff" font-size="32" font-family="Oswald-Regular, Oswald" letter-spacing="0.01em"><tspan x="0" y="0">Washington Certification Services</tspan></text>
        </g>
        <path id="Path_15899" data-name="Path 15899" d="M402.833,342.129c8.861-6.658,18.8-7.495,28.791-3.52,8.149,3.242,15.824,7.7,23.649,11.734,4.383,2.26,8.575,4.893,12.969,7.13,11.3,5.751,22.863,9.126,35.314,3.144-4.655,5.223-10.156,8.607-17.2,9.343-1.842.192-3.611,1.195-5.384,1.9-3.656,1.451-7.291,2.951-10.935,4.432a14.915,14.915,0,0,0-3.646,1.535c-6.177,4.838-13.082,6.071-20.161,3.052-6.238-2.661-12.086-6.258-18.032-9.574-4.4-2.451-8.561-5.335-13.031-7.631-6.26-3.215-12.766-4.93-19.511-1.023a19.142,19.142,0,0,1,19.334-2.908,139.608,139.608,0,0,1,17,8.127c6.933,3.713,13.52,8.109,21.363,9.843,4.626,1.022,9.311.567,12.512-1.362-8.96-1.255-16.275-6.011-23.7-10.548-6.093-3.72-12.186-7.446-18.4-10.963-7.734-4.38-15.829-6.051-24.442-2.377,6.229-4.578,13.2-6.005,20.4-3.7a126.093,126.093,0,0,1,17.57,7.549c7.134,3.556,13.924,7.806,21.085,11.3,6.224,3.038,12.893,4.484,19.892,2.873a2.031,2.031,0,0,0,1.084-.6c-11.129-2.879-20.3-9.373-29.843-15.175-6.633-4.032-13.34-7.978-20.234-11.536C419.874,338.323,412.671,338.287,402.833,342.129Z" transform="translate(-395.656 -319.403)" fill="#fff"/>
      </g>
    </g>
  </g>
</svg>
