<svg xmlns="http://www.w3.org/2000/svg" xmlns:xlink="http://www.w3.org/1999/xlink" width="480" height="64" viewBox="0 0 480 64">
  <defs>
    <clipPath id="clip-WCS_Logo">
      <rect width="480" height="64"/>
    </clipPath>
  </defs>
  <g id="WCS_Logo" clip-path="url(#clip-WCS_Logo)">
    <path id="Path_15904" data-name="Path 15904" d="M5.376,0H8.128l3.648-19.2L15.392,0h2.624l4.16-25.92H19.232L16.512-7.2l-3.52-18.624h-2.56L6.944-7.3,4.16-25.92H1.152ZM28.192.256A3.92,3.92,0,0,0,31.936-2.72c.1.864.32,2.048.448,2.72H35.52a33.146,33.146,0,0,1-.32-4.448V-12.9c0-3.808-1.408-5.856-5.056-5.856-3.776,0-5.5,1.888-5.568,5.984l3.392.128v-.928c0-1.6.544-2.624,1.952-2.624,1.6,0,1.856,1.088,1.856,3.328v1.312c-3.968,1.568-7.3,2.912-7.3,7.52C24.48-1.856,26.016.256,28.192.256Zm1.344-2.944c-1.056,0-1.632-.9-1.632-2.4,0-2.144,1.76-3.168,3.872-4.384v5.248A3.225,3.225,0,0,1,29.536-2.688ZM43.1.256c3.04,0,5.12-1.568,5.12-4.736,0-2.368-1.312-3.776-2.624-4.992L42.336-12.48a2.427,2.427,0,0,1-.928-1.856,1.8,1.8,0,0,1,1.824-1.888c1.472,0,2.016,1.28,2.272,3.2l2.3-.864c-.224-2.688-1.76-4.864-4.7-4.864-2.88,0-4.768,1.632-4.768,4.544A5.5,5.5,0,0,0,40.608-9.7l3.168,2.72a3.433,3.433,0,0,1,1.5,2.752,1.767,1.767,0,0,1-1.888,1.952c-1.568,0-2.336-1.152-2.656-3.52l-2.848.864C38.144-1.824,40.064.256,43.1.256ZM51.2,0h3.424V-14.848a4.253,4.253,0,0,1,2.5-1.216c1.184,0,1.472.768,1.472,2.08V0h3.424V-14.976c0-1.792-.576-3.776-2.752-3.776a6.767,6.767,0,0,0-4.64,2.176V-25.92H51.2ZM65.888-21.248h3.424v-3.584H65.888ZM65.888,0h3.424V-18.5H65.888Zm7.424,0h3.424V-14.912a4.179,4.179,0,0,1,2.4-1.152c1.184,0,1.472.768,1.472,2.08V0h3.424V-14.976c0-1.792-.576-3.776-2.784-3.776a6.633,6.633,0,0,0-4.512,2.08V-18.5H73.312ZM92.48,5.728c4.32,0,6.432-1.568,6.432-4.608,0-2.784-1.376-4.256-4.288-4.512l-2.88-.256c-1.088-.1-1.536-.352-1.536-.832a2.922,2.922,0,0,1,.608-1.408,8.033,8.033,0,0,0,1.76.224c3.872,0,5.12-2.624,5.12-6.4a11.715,11.715,0,0,0-.576-3.392,12.4,12.4,0,0,1,3.136-1.184l-.864-2.208-.512.224a7.515,7.515,0,0,0-2.5,1.92c-.64-1.344-1.824-2.048-3.808-2.048-3.424,0-5.216,2.272-5.216,6.592,0,2.944.736,4.448,2.144,5.5C88.224-5.5,87.456-4.672,87.456-3.3a2.15,2.15,0,0,0,1.792,1.984A4.031,4.031,0,0,0,86.592,2.24C86.592,4.736,89.12,5.728,92.48,5.728Zm.1-13.792c-1.92,0-2.24-1.792-2.24-4.1,0-2.688.352-4.224,2.272-4.224s2.176,1.632,2.176,4.224S94.528-8.064,92.576-8.064Zm.16,11.1c-2.5,0-3.264-.544-3.264-1.664a3.538,3.538,0,0,1,1.376-2.3l2.912.256c2.016.192,2.528.768,2.528,1.888C96.288,2.5,95.168,3.04,92.736,3.04ZM106.848.256a14.771,14.771,0,0,0,2.368-.192V-2.464a9.229,9.229,0,0,1-1.248.1c-1.344,0-1.7-.576-1.7-2.016v-11.84h2.976V-18.5h-2.976V-23.9h-3.424V-18.5H100.9v2.272h1.952V-4.16C102.848-1.472,103.936.256,106.848.256Zm10.336,0c4.1,0,5.376-2.656,5.376-6.816v-5.376c0-4.16-1.28-6.816-5.376-6.816-4.128,0-5.408,2.656-5.408,6.816V-6.56C111.776-2.4,113.056.256,117.184.256Zm0-2.528c-1.984,0-1.984-1.984-1.984-4.064v-5.792c0-2.08,0-4.1,1.984-4.1,1.952,0,1.952,2.016,1.952,4.1v5.792C119.136-4.256,119.136-2.272,117.184-2.272ZM126.016,0h3.424V-14.912a4.179,4.179,0,0,1,2.4-1.152c1.184,0,1.472.768,1.472,2.08V0h3.424V-14.976c0-1.792-.576-3.776-2.784-3.776a6.633,6.633,0,0,0-4.512,2.08V-18.5h-3.424Zm28.8.288c5.088,0,6.528-3.232,6.528-8v-1.92H157.92v1.92c0,3.072-.16,5.152-3.072,5.152-2.5,0-3.36-1.28-3.36-5.184V-18.016c0-3.2.288-5.312,3.36-5.312,3.008,0,3.072,1.984,3.072,4.864v1.824h3.424v-2.048c0-4.672-1.7-7.456-6.528-7.456-5.5,0-6.976,3.424-6.976,8.672V-8.32C147.84-3.488,149.312.288,154.816.288ZM169.952.256c3.776,0,5.216-2.272,5.216-5.984v-.7H171.84v1.12c0,1.856-.32,3.04-1.856,3.04-1.472,0-2.08-.96-2.08-3.2V-9.184h7.3v-1.5c0-5.056-.608-8.064-5.248-8.064-4.256,0-5.472,2.5-5.472,7.392v4.224C164.48-2.3,165.6.256,169.952.256ZM167.9-11.04v-.992c0-3.2.352-4.192,2.016-4.192,1.7,0,1.92,1.248,1.92,3.52v1.664ZM178.72,0h3.424V-13.5A2.994,2.994,0,0,1,184.9-15.3a5.653,5.653,0,0,1,1.888.384v-3.776a3.7,3.7,0,0,0-.544-.032c-1.376,0-2.752.608-4.1,2.848V-18.5H178.72Zm15.424.256a14.771,14.771,0,0,0,2.368-.192V-2.464a9.229,9.229,0,0,1-1.248.1c-1.344,0-1.7-.576-1.7-2.016v-11.84h2.976V-18.5h-2.976V-23.9h-3.424V-18.5h-1.952v2.272h1.952V-4.16C190.144-1.472,191.232.256,194.144.256Zm5.472-21.5h3.424v-3.584h-3.424Zm0,21.248h3.424V-18.5h-3.424Zm8.512,0h3.424V-15.968h4.128V0H219.1V-18.5h-7.552v-1.536c0-1.7.288-2.368,1.632-2.368a5.545,5.545,0,0,1,1.184.128v-2.56a13.244,13.244,0,0,0-1.856-.128c-3.36,0-4.384,1.824-4.384,5.5v.96H205.92v2.528h2.208ZM216-21.248h3.136v-3.584H216ZM228.128.256c3.968,0,5.056-2.208,5.056-5.952v-1.28h-3.1v1.5c0,1.888-.192,3.2-1.888,3.2-1.536,0-2.048-.8-2.048-3.968v-5.824c0-3.136.32-4.16,2.016-4.16,1.5,0,1.92.864,1.92,3.264v1.12h3.1v-1.088c0-3.808-1.024-5.824-5.056-5.824-4.48,0-5.408,2.752-5.408,7.392V-7.1C222.72-2.656,223.584.256,228.128.256Zm11.744,0a3.92,3.92,0,0,0,3.744-2.976c.1.864.32,2.048.448,2.72H247.2a33.146,33.146,0,0,1-.32-4.448V-12.9c0-3.808-1.408-5.856-5.056-5.856-3.776,0-5.5,1.888-5.568,5.984l3.392.128v-.928c0-1.6.544-2.624,1.952-2.624,1.6,0,1.856,1.088,1.856,3.328v1.312c-3.968,1.568-7.3,2.912-7.3,7.52C236.16-1.856,237.7.256,239.872.256Zm1.344-2.944c-1.056,0-1.632-.9-1.632-2.4,0-2.144,1.76-3.168,3.872-4.384v5.248A3.225,3.225,0,0,1,241.216-2.688ZM255.168.256a14.771,14.771,0,0,0,2.368-.192V-2.464a9.229,9.229,0,0,1-1.248.1c-1.344,0-1.7-.576-1.7-2.016v-11.84h2.976V-18.5h-2.976V-23.9h-3.424V-18.5h-1.952v2.272h1.952V-4.16C251.168-1.472,252.256.256,255.168.256Zm5.472-21.5h3.424v-3.584H260.64ZM260.64,0h3.424V-18.5H260.64Zm12.512.256c4.1,0,5.376-2.656,5.376-6.816v-5.376c0-4.16-1.28-6.816-5.376-6.816-4.128,0-5.408,2.656-5.408,6.816V-6.56C267.744-2.4,269.024.256,273.152.256Zm0-2.528c-1.984,0-1.984-1.984-1.984-4.064v-5.792c0-2.08,0-4.1,1.984-4.1,1.952,0,1.952,2.016,1.952,4.1v5.792C275.1-4.256,275.1-2.272,273.152-2.272ZM281.984,0h3.424V-14.912a4.179,4.179,0,0,1,2.4-1.152c1.184,0,1.472.768,1.472,2.08V0H292.7V-14.976c0-1.792-.576-3.776-2.784-3.776a6.633,6.633,0,0,0-4.512,2.08V-18.5h-3.424ZM310.4.288a5.836,5.836,0,0,0,6.208-6.176,9.6,9.6,0,0,0-3.712-7.264l-4.384-3.84a4.108,4.108,0,0,1-1.7-3.52,2.566,2.566,0,0,1,2.848-2.848c2.688,0,3.264,2.176,3.456,4.736l3.072-.832c-.416-4.544-2.4-6.688-6.528-6.688-3.744,0-6.08,2.176-6.08,5.984a6.817,6.817,0,0,0,2.5,5.728l4.352,3.84c1.632,1.44,2.816,2.656,2.816,4.992,0,1.984-.992,3.04-2.848,3.04-2.784,0-3.488-2.784-3.68-5.568l-3.2.864C303.776-2.784,305.888.288,310.4.288ZM324.576.256c3.776,0,5.216-2.272,5.216-5.984v-.7h-3.328v1.12c0,1.856-.32,3.04-1.856,3.04-1.472,0-2.08-.96-2.08-3.2V-9.184h7.3v-1.5c0-5.056-.608-8.064-5.248-8.064-4.256,0-5.472,2.5-5.472,7.392v4.224C319.1-2.3,320.224.256,324.576.256Zm-2.048-11.3v-.992c0-3.2.352-4.192,2.016-4.192,1.7,0,1.92,1.248,1.92,3.52v1.664ZM333.344,0h3.424V-13.5A2.994,2.994,0,0,1,339.52-15.3a5.653,5.653,0,0,1,1.888.384v-3.776a3.7,3.7,0,0,0-.544-.032c-1.376,0-2.752.608-4.1,2.848V-18.5h-3.424Zm12.9,0h4.192l3.52-18.5h-3.328l-2.3,14.88L346.048-18.5h-3.456ZM356.7-21.248h3.424v-3.584H356.7ZM356.7,0h3.424V-18.5H356.7Zm12.48.256c3.968,0,5.056-2.208,5.056-5.952v-1.28h-3.1v1.5c0,1.888-.192,3.2-1.888,3.2-1.536,0-2.048-.8-2.048-3.968v-5.824c0-3.136.32-4.16,2.016-4.16,1.5,0,1.92.864,1.92,3.264v1.12h3.1v-1.088c0-3.808-1.024-5.824-5.056-5.824-4.48,0-5.408,2.752-5.408,7.392V-7.1C363.776-2.656,364.64.256,369.184.256Zm13.536,0c3.776,0,5.216-2.272,5.216-5.984v-.7h-3.328v1.12c0,1.856-.32,3.04-1.856,3.04-1.472,0-2.08-.96-2.08-3.2V-9.184h7.3v-1.5c0-5.056-.608-8.064-5.248-8.064-4.256,0-5.472,2.5-5.472,7.392v4.224C377.248-2.3,378.368.256,382.72.256Zm-2.048-11.3v-.992c0-3.2.352-4.192,2.016-4.192,1.7,0,1.92,1.248,1.92,3.52v1.664ZM395.68.256c3.04,0,5.12-1.568,5.12-4.736,0-2.368-1.312-3.776-2.624-4.992l-3.264-3.008a2.427,2.427,0,0,1-.928-1.856,1.8,1.8,0,0,1,1.824-1.888c1.472,0,2.016,1.28,2.272,3.2l2.3-.864c-.224-2.688-1.76-4.864-4.7-4.864-2.88,0-4.768,1.632-4.768,4.544A5.5,5.5,0,0,0,393.184-9.7l3.168,2.72a3.433,3.433,0,0,1,1.5,2.752,1.767,1.767,0,0,1-1.888,1.952c-1.568,0-2.336-1.152-2.656-3.52l-2.848.864C390.72-1.824,392.64.256,395.68.256Z" transform="translate(78 38)" fill="#fff"/>
    <path id="Path_15899" data-name="Path 15899" d="M402.833,342.129c8.861-6.658,18.8-7.495,28.791-3.52,8.149,3.242,15.824,7.7,23.649,11.734,4.383,2.26,8.575,4.893,12.969,7.13,11.3,5.751,22.863,9.126,35.314,3.144-4.655,5.223-10.156,8.607-17.2,9.343-1.842.192-3.611,1.195-5.384,1.9-3.656,1.451-7.291,2.951-10.935,4.432a14.915,14.915,0,0,0-3.646,1.535c-6.177,4.838-13.082,6.071-20.161,3.052-6.238-2.661-12.086-6.258-18.032-9.574-4.4-2.451-8.561-5.335-13.031-7.631-6.26-3.215-12.766-4.93-19.511-1.023a19.142,19.142,0,0,1,19.334-2.908,139.608,139.608,0,0,1,17,8.127c6.933,3.713,13.52,8.109,21.363,9.843,4.626,1.022,9.311.567,12.512-1.362-8.96-1.255-16.275-6.011-23.7-10.548-6.093-3.72-12.186-7.446-18.4-10.963-7.734-4.38-15.829-6.051-24.442-2.377,6.229-4.578,13.2-6.005,20.4-3.7a126.093,126.093,0,0,1,17.57,7.549c7.134,3.556,13.924,7.806,21.085,11.3,6.224,3.038,12.893,4.484,19.892,2.873a2.031,2.031,0,0,0,1.084-.6c-11.129-2.879-20.3-9.373-29.843-15.175-6.633-4.032-13.34-7.978-20.234-11.536C419.874,338.323,412.671,338.287,402.833,342.129Z" transform="translate(-395.656 -319.403)" fill="#fff"/>
  </g>
</svg>
