<svg xmlns="http://www.w3.org/2000/svg" width="152" height="146.938" viewBox="0 0 152 146.938"><defs><style>.a{fill:#fff;}</style></defs><g transform="translate(0 -8.527)"><g transform="translate(103.262 99.56)"><path class="a" d="M382.123,346.165a17.093,17.093,0,1,0-19.844,0,24.4,24.4,0,0,0-14.449,22.253,2.65,2.65,0,0,0,5.3,0,19.069,19.069,0,0,1,38.138,0,2.65,2.65,0,1,0,5.3,0A24.405,24.405,0,0,0,382.123,346.165Zm-9.924-2.113a11.792,11.792,0,1,1,11.792-11.792A11.805,11.805,0,0,1,372.2,344.052Z" transform="translate(-347.83 -315.167)"/></g><g transform="translate(51.918 8.527)"><g transform="translate(0 0)"><path class="a" d="M215.872,15.46a24.081,24.081,0,0,0-34.2,33.9A15.729,15.729,0,0,1,186.2,60.334v3.074A11.256,11.256,0,0,0,197.444,74.65h3.041a11.256,11.256,0,0,0,11.243-11.243V60.333a15.676,15.676,0,0,1,4.514-10.951,24.079,24.079,0,0,0-.37-33.922Zm-9.444,47.947a5.95,5.95,0,0,1-5.943,5.943h-3.041a5.95,5.95,0,0,1-5.943-5.943v-.423h14.927v.423ZM212.44,45.69A21.043,21.043,0,0,0,206.6,57.684h-4.989V42.4l7.843-7.843a2.65,2.65,0,1,0-3.748-3.748l-6.746,6.746-6.745-6.746a2.65,2.65,0,1,0-3.748,3.748l7.843,7.843V57.684h-4.989a21.124,21.124,0,0,0-5.849-12.007,18.781,18.781,0,0,1,13.218-31.847l.273,0A18.78,18.78,0,0,1,212.44,45.69Z" transform="translate(-174.883 -8.527)"/></g></g><g transform="translate(30.385 74.65)"><path class="a" d="M122.775,232.036a2.65,2.65,0,0,0-3.748,0l-15.9,15.9a2.65,2.65,0,1,0,3.748,3.748l15.9-15.9A2.65,2.65,0,0,0,122.775,232.036Z" transform="translate(-102.352 -231.259)"/></g><g transform="translate(100.414 74.65)"><path class="a" d="M358.662,247.936l-15.9-15.9a2.65,2.65,0,1,0-3.748,3.748l15.9,15.9a2.65,2.65,0,0,0,3.748-3.748Z" transform="translate(-338.239 -231.26)"/></g><g transform="translate(73.35 80.964)"><path class="a" d="M249.723,252.528a2.65,2.65,0,0,0-2.65,2.65v10.116a2.65,2.65,0,1,0,5.3,0V255.178A2.65,2.65,0,0,0,249.723,252.528Z" transform="translate(-247.073 -252.528)"/></g><g transform="translate(118.933 108.06)"><circle class="a" cx="2.65" cy="2.65" r="2.65"/></g><g transform="translate(128.65 108.06)"><circle class="a" cx="2.65" cy="2.65" r="2.65"/></g><g transform="translate(51.631 99.56)"><path class="a" d="M208.208,346.165a17.093,17.093,0,1,0-19.844,0,24.4,24.4,0,0,0-14.449,22.253,2.65,2.65,0,1,0,5.3,0,19.069,19.069,0,0,1,38.138,0,2.65,2.65,0,1,0,5.3,0A24.405,24.405,0,0,0,208.208,346.165Zm-9.924-2.113a11.792,11.792,0,1,1,11.792-11.792A11.805,11.805,0,0,1,198.284,344.052Z" transform="translate(-173.915 -315.167)"/></g><g transform="translate(68.493 108.06)"><circle class="a" cx="2.65" cy="2.65" r="2.65"/></g><g transform="translate(78.21 108.06)"><circle class="a" cx="2.65" cy="2.65" r="2.65"/></g><g transform="translate(0 99.56)"><path class="a" d="M34.289,346.167a17.092,17.092,0,1,0-19.844,0A24.4,24.4,0,0,0,0,368.42a2.65,2.65,0,1,0,5.3,0,19.069,19.069,0,0,1,38.138,0,2.65,2.65,0,1,0,5.3,0A24.4,24.4,0,0,0,34.289,346.167Zm-9.92-2.116a11.792,11.792,0,1,1,11.792-11.792A11.805,11.805,0,0,1,24.369,344.051Z" transform="translate(0 -315.166)"/></g><g transform="translate(27.766 108.06)"><circle class="a" cx="2.65" cy="2.65" r="2.65"/></g><g transform="translate(18.049 108.06)"><circle class="a" cx="2.65" cy="2.65" r="2.65"/></g></g></svg>