<svg xmlns="http://www.w3.org/2000/svg" width="144" height="141.943" viewBox="0 0 144 141.943"><defs><style>.a{fill:#fff;}</style></defs><g transform="translate(0 -8)"><g transform="translate(0 8)"><path class="a" d="M137.25,8H6.75A6.81,6.81,0,0,0,0,14.868V115.6a2.27,2.27,0,0,0,2.25,2.289H53.5l-3.6,18.315H45a2.27,2.27,0,0,0-2.25,2.289v6.868h-4.5v4.579h67.5v-4.579h-4.5V138.5A2.27,2.27,0,0,0,99,136.206H94.091l-3.6-18.315H141.75A2.27,2.27,0,0,0,144,115.6V14.868A6.81,6.81,0,0,0,137.25,8Zm-45,132.785h4.5v4.579H47.25v-4.579h45Zm-37.755-4.579,3.6-18.315H85.9l3.6,18.315ZM139.5,113.312H4.5v-20.6h135ZM108,28.6H90a2.27,2.27,0,0,0-2.25,2.289V51.5h4.5V33.183h13.5v9.158h-9V46.92h9V58.367h-9v4.579h9V74.393h-9v4.579h9v9.158H92.25V69.814h-4.5V88.129h-9V76.682c0-9.343,11.151-11.4,11.619-11.479a2.225,2.225,0,0,0,.785-.294,2.312,2.312,0,0,0,.775-3.14L71.678,27.428a2.36,2.36,0,0,0-.607-.617,2.313,2.313,0,0,0-3.25.617L47.572,61.769a2.309,2.309,0,0,0-.288.793A2.286,2.286,0,0,0,49.124,65.2c.475.082,11.626,2.136,11.626,11.479V88.129h-9V69.814h-4.5V88.129H45V46.92h2.25V51.5h4.5V44.63a2.3,2.3,0,0,0-.182-.9L44.818,27.7a2.27,2.27,0,0,0-1.181-1.2,2.236,2.236,0,0,0-2.955,1.2l-6.75,16.026a2.3,2.3,0,0,0-.182.9v43.5h-18v-64.1h112.5v64.1h-18V30.894A2.27,2.27,0,0,0,108,28.6ZM65.25,81.261V78.971h9v2.289Zm9,4.579v2.289h-9V85.84ZM65.086,74.393c-1.078-7.28-7.2-11.218-12.1-12.9L67.5,36.871V56.077H72V36.871L86.519,61.492c-4.9,1.671-11.027,5.62-12.1,12.9H65.086ZM39.407,42.341l3.343-7.935,3.343,7.935ZM40.5,46.92V88.129H38.25V46.92Zm99,41.209h-6.75V21.736a2.27,2.27,0,0,0-2.25-2.289H13.5a2.27,2.27,0,0,0-2.25,2.289V88.129H4.5V14.868a2.27,2.27,0,0,1,2.25-2.289h130.5a2.27,2.27,0,0,1,2.25,2.289Z" transform="translate(0 -8)"/></g><g transform="translate(65.539 95.55)"><path class="a" d="M238.461,312a6.461,6.461,0,1,0,6.461,6.461A6.461,6.461,0,0,0,238.461,312Zm0,8.614a2.154,2.154,0,1,1,2.154-2.154A2.154,2.154,0,0,1,238.461,320.614Z" transform="translate(-232 -312)"/></g></g></svg>