<svg id="Layer_1" data-name="Layer 1" xmlns="http://www.w3.org/2000/svg" viewBox="0 0 298.12 315.17"><defs><style>.cls-1{fill:#b3aead;}</style></defs><title>Connector Vector</title><path class="cls-1" d="M455.78,526.24l-22.59,21.32L411.86,525a6.6,6.6,0,1,0-9.59,9.06l30.37,32.2,32.19-30.38a6.6,6.6,0,1,0-9.05-9.6Z" transform="translate(-168.78 -251.04)"/><path class="cls-1" d="M421.77,502.93a12.24,12.24,0,1,1,11.54,12.89A12.24,12.24,0,0,1,421.77,502.93Z" transform="translate(-168.78 -251.04)"/><path class="cls-1" d="M225.21,255.21a12.24,12.24,0,1,1-12.89,11.54A12.23,12.23,0,0,1,225.21,255.21Z" transform="translate(-168.78 -251.04)"/><path class="cls-1" d="M386.88,335a12.24,12.24,0,1,1-17.28-1A12.23,12.23,0,0,1,386.88,335Z" transform="translate(-168.78 -251.04)"/><path class="cls-1" d="M313.78,280a12.23,12.23,0,1,1-16.33,5.72A12.23,12.23,0,0,1,313.78,280Z" transform="translate(-168.78 -251.04)"/><path class="cls-1" d="M433.39,413.74a12.24,12.24,0,1,1-15.6-7.51A12.24,12.24,0,0,1,433.39,413.74Z" transform="translate(-168.78 -251.04)"/><path class="cls-1" d="M420,461.81a12.24,12.24,0,1,1,13.83,10.4A12.24,12.24,0,0,1,420,461.81Z" transform="translate(-168.78 -251.04)"/><path class="cls-1" d="M179.31,251.17A12.23,12.23,0,1,1,168.91,265,12.23,12.23,0,0,1,179.31,251.17Z" transform="translate(-168.78 -251.04)"/><path class="cls-1" d="M353,303.9a12.24,12.24,0,1,1-17.13,2.43A12.23,12.23,0,0,1,353,303.9Z" transform="translate(-168.78 -251.04)"/><path class="cls-1" d="M270.62,264.25a12.24,12.24,0,1,1-14.9,8.8A12.23,12.23,0,0,1,270.62,264.25Z" transform="translate(-168.78 -251.04)"/><path class="cls-1" d="M414,372.07a12.23,12.23,0,1,1-16.76-4.32A12.23,12.23,0,0,1,414,372.07Z" transform="translate(-168.78 -251.04)"/></svg>