<svg id="Layer_1" data-name="Layer 1" xmlns="http://www.w3.org/2000/svg" viewBox="0 0 381.26 106.03"><defs><style>.cls-1{fill:#fff;}.cls-2{fill:#1f3562;}.cls-3{fill:#1f3561;}</style></defs><title>Expedia-Vector</title><g id="g5075"><path id="path5077" class="cls-1" d="M65.43,224.15l28.36-48.07c-.47-1.33-1-2.63-1.58-3.91L42,151,9.86,197c.12.75.25,1.49.4,2.23Z" transform="translate(-9.37 -146.98)"/></g><g id="g5007"><path id="path5009" class="cls-2" d="M189.51,229.9H177.84a.13.13,0,0,1-.11-.05l-10-12.26-10.06,12.26a.12.12,0,0,1-.11.05h-9.33a.16.16,0,0,1-.15-.09.15.15,0,0,1,0-.15l14.8-18.17-14.64-18a.17.17,0,0,1,0-.17s.08-.08.13-.08H160a.15.15,0,0,1,.11.07l8.81,10.92,9-10.93a.15.15,0,0,1,.11-.06h9.51a.17.17,0,0,1,.13.08.15.15,0,0,1,0,.17l-13.88,16.68,15.87,19.5a.12.12,0,0,1,0,.15.13.13,0,0,1-.12.09" transform="translate(-9.37 -146.98)"/></g><g id="g5011"><path id="path5013" class="cls-2" d="M252.65,199.69c-5.16,0-8.69,3.13-9.71,8.59h17.58v-.36a8,8,0,0,0-7.87-8.23m16.93,14.17a.14.14,0,0,1-.13.06H242.76c.55,6.22,4.59,9.76,11.13,9.76,4,0,8.29-1.38,14.33-4.59a.16.16,0,0,1,.22.16l0,8.2c0,.07,0,.11-.08.12-5.62,2.38-11.27,4-15.69,4-11.49,0-19.84-8.37-19.84-19.91s8.35-19.9,19.84-19.9c10.48,0,17.23,7.06,17.23,16.77,0,1.57-.29,5.23-.3,5.35" transform="translate(-9.37 -146.98)"/></g><g id="g5015"><path id="path5017" class="cls-2" d="M323.82,185.66a5.9,5.9,0,0,1-5.94-5.85,5.94,5.94,0,1,1,11.87,0,5.89,5.89,0,0,1-5.93,5.85M319,229.9a.13.13,0,0,1-.14-.15V193.38a.16.16,0,0,1,.11-.15h9.65a.16.16,0,0,1,.12.15v36.37a.14.14,0,0,1-.15.15Z" transform="translate(-9.37 -146.98)"/></g><g id="g5019"><path id="path5021" class="cls-2" d="M207.16,224.42a20.93,20.93,0,0,1-5.57-.79V200.29a21.22,21.22,0,0,1,6.55-1.11c6.68,0,11.16,4.92,11.16,12.25,0,7.9-4.77,13-12.15,13m2.61-32.67a25.41,25.41,0,0,0-8.34,1.48h-9.6a.14.14,0,0,0-.14.14V253a22.14,22.14,0,0,0,9.91-3.88V231a43.36,43.36,0,0,0,6.2.56c13.14,0,21.65-7.87,21.65-20.06,0-11.62-8.1-19.74-19.67-19.74" transform="translate(-9.37 -146.98)"/></g><g id="g5023"><path id="path5025" class="cls-2" d="M301.46,221.4a17.67,17.67,0,0,1-8.21,2.33c-5.95,0-9.52-4.2-9.52-11.25,0-8.14,4.55-13.41,11.6-13.41a14.49,14.49,0,0,1,6.13,1.51Zm0-47.42v19a27.3,27.3,0,0,0-7.79-1.19,19.63,19.63,0,0,0-20.08,20.08c0,11.38,7.62,19.64,18.1,19.64a23.32,23.32,0,0,0,11-3v3.29a22.13,22.13,0,0,0,8.66-3.68V170.08a21.25,21.25,0,0,0-9.9,3.9" transform="translate(-9.37 -146.98)"/></g><g id="g5027"><path id="path5029" class="cls-2" d="M362.15,221.33a15.68,15.68,0,0,1-7.62,2.49c-6.38,0-10.19-4.2-10.19-11.26,0-8,4.49-13.41,11.18-13.41a14.81,14.81,0,0,1,6.63,2.09Zm9.92-28.54a.43.43,0,0,0-.42-.41l-7.79,0a.42.42,0,0,0-.42.42v1.32h-.2a23.86,23.86,0,0,0-9.69-2.31c-10.78,0-19.24,8.95-19.24,20.4s7.57,19.32,18.83,19.32c3,0,6.87-.2,10.48-4.36v4.68a22.28,22.28,0,0,0,8.43-3.68Z" transform="translate(-9.37 -146.98)"/></g><g id="g5031"><path id="path5033" class="cls-2" d="M121.52,220.68h24.16a21.85,21.85,0,0,1-3.38,9.08H117.17a6,6,0,0,1-5.9-5.4s0-.08,0-.12V176.6s0-.08,0-.12a6,6,0,0,1,5.9-5.41l.28,0h28.17a21.94,21.94,0,0,1-3.37,9.14H121.52v13H142a.15.15,0,0,1,.15.15v9a.15.15,0,0,1-.15.14H121.52v18.21Z" transform="translate(-9.37 -146.98)"/></g><g id="g5035"><path id="path5037" class="cls-1" d="M189.51,229.89H177.85a.16.16,0,0,1-.12,0l-10-12.26-10.05,12.26a.17.17,0,0,1-.12,0h-9.34a.13.13,0,0,1-.13-.08.12.12,0,0,1,0-.15l14.8-18.17-14.64-18a.17.17,0,0,1,0-.17.2.2,0,0,1,.13-.08H160a.13.13,0,0,1,.11.07l8.81,10.92,9-10.93a.13.13,0,0,1,.11-.06h9.51a.22.22,0,0,1,.14.08.17.17,0,0,1,0,.17l-13.88,16.67,15.87,19.51a.12.12,0,0,1,0,.15.14.14,0,0,1-.13.08" transform="translate(-9.37 -146.98)"/></g><g id="g5039"><path id="path5041" class="cls-1" d="M252.65,199.68c-5.16,0-8.7,3.13-9.71,8.6h17.58v-.36a8,8,0,0,0-7.87-8.24m16.93,14.18a.14.14,0,0,1-.13.06H242.76c.55,6.21,4.59,9.76,11.13,9.76,4,0,8.29-1.38,14.33-4.58a.15.15,0,0,1,.22.15l0,8.19c0,.08,0,.12-.08.13-5.61,2.38-11.26,4-15.69,4-11.5,0-19.83-8.37-19.83-19.91s8.33-19.9,19.83-19.9c10.49,0,17.23,7.06,17.23,16.77,0,1.57-.29,5.23-.3,5.35" transform="translate(-9.37 -146.98)"/></g><g id="g5043"><path id="path5045" class="cls-1" d="M323.82,185.66a5.9,5.9,0,0,1-5.94-5.85,5.94,5.94,0,1,1,11.87,0,5.9,5.9,0,0,1-5.93,5.85M319,229.89c-.1,0-.15,0-.15-.14V193.37a.13.13,0,0,1,.11-.14h9.65a.14.14,0,0,1,.12.14v36.38a.13.13,0,0,1-.14.14Z" transform="translate(-9.37 -146.98)"/></g><g id="g5047"><path id="path5049" class="cls-1" d="M207.16,224.42a21,21,0,0,1-5.57-.79V200.29a21.35,21.35,0,0,1,6.55-1.12c6.68,0,11.17,4.93,11.17,12.26,0,7.89-4.77,13-12.16,13m2.61-32.68a25.41,25.41,0,0,0-8.34,1.48h-9.6a.15.15,0,0,0-.14.15V253a22,22,0,0,0,9.91-3.88V231a44.73,44.73,0,0,0,6.2.55c13.14,0,21.65-7.87,21.65-20.06,0-11.63-8.1-19.75-19.67-19.75" transform="translate(-9.37 -146.98)"/></g><g id="g5051"><path id="path5053" class="cls-1" d="M301.46,221.4a17.72,17.72,0,0,1-8.21,2.33c-5.95,0-9.52-4.21-9.52-11.25,0-8.14,4.56-13.41,11.6-13.41a14.3,14.3,0,0,1,6.13,1.51Zm0-47.43v19a27.17,27.17,0,0,0-7.79-1.18A19.63,19.63,0,0,0,273.6,211.9c0,11.39,7.61,19.65,18.09,19.65a23.32,23.32,0,0,0,11-3v3.29a22.22,22.22,0,0,0,8.66-3.68V170.08a21.27,21.27,0,0,0-9.9,3.89" transform="translate(-9.37 -146.98)"/></g><g id="g5055"><path id="path5057" class="cls-1" d="M362.15,221.33a15.65,15.65,0,0,1-7.62,2.49c-6.38,0-10.19-4.2-10.19-11.26,0-8,4.5-13.42,11.18-13.42a14.72,14.72,0,0,1,6.63,2.1Zm9.92-28.54a.43.43,0,0,0-.42-.41l-7.79,0a.41.41,0,0,0-.42.41v1.33h-.2a23.86,23.86,0,0,0-9.69-2.31c-10.78,0-19.24,8.94-19.24,20.4s7.57,19.32,18.83,19.32c3,0,6.87-.2,10.48-4.36v4.68a22.31,22.31,0,0,0,8.43-3.69Z" transform="translate(-9.37 -146.98)"/></g><g id="g5059"><path id="path5061" class="cls-1" d="M121.52,220.67h24.16a21.9,21.9,0,0,1-3.38,9.08H117.17a6,6,0,0,1-5.9-5.4s0-.08,0-.12V176.6s0-.09,0-.12a6,6,0,0,1,5.9-5.41h28.45a22.17,22.17,0,0,1-3.37,9.15H121.52v13H142a.15.15,0,0,1,.15.14v9a.15.15,0,0,1-.15.14H121.52v18.21Z" transform="translate(-9.37 -146.98)"/></g><g id="g5063"><path id="path5065" class="cls-2" d="M382.36,191.82h1.11c1.26,0,1.85-.35,1.85-1.22s-.63-1.27-1.93-1.27h-1Zm1.35-3.57c2.24,0,3.35.76,3.35,2.16a2.09,2.09,0,0,1-1.76,2.19l1.76,3.59h-1.9l-1.57-3.31h-1.23v3.31h-1.7v-7.94Zm-4.37-.21a6.15,6.15,0,0,0-1.82,4.31,6.06,6.06,0,0,0,5.93,6,6.21,6.21,0,0,0,4.38-1.76,5.78,5.78,0,0,0,1.75-4.17,6,6,0,0,0-6-6.14,5.79,5.79,0,0,0-4.22,1.73m9.27-.65a7,7,0,0,1,2,5,6.84,6.84,0,0,1-2.08,5,7.16,7.16,0,0,1-5,2.08,7.17,7.17,0,0,1-7.07-7.09,7.12,7.12,0,0,1,2.14-5.06,6.78,6.78,0,0,1,4.93-2,7,7,0,0,1,5.08,2.12" transform="translate(-9.37 -146.98)"/></g><g id="g5067"><path id="path5069" class="cls-3" d="M60.18,180.35l-1.75-4.95L43.59,155.57l2.67-.66L71.84,177l15.06-4.31a21.83,21.83,0,0,1,5.3-.54A43.43,43.43,0,0,0,9.86,197l36.07-12.53Z" transform="translate(-9.37 -146.98)"/></g><g id="g5071"><path id="path5073" class="cls-3" d="M93.79,176.08a23.47,23.47,0,0,1-5.19,2.6L73.51,183,63.44,215.3l-2.61.86L63,191.47l-1.19-5.12-14.14,4-37.38,8.8a43.44,43.44,0,1,0,83.54-23.1" transform="translate(-9.37 -146.98)"/></g><g id="g5079"><path id="path5081" class="cls-3" d="M91.33,230.66a4.16,4.16,0,1,1,3.84-4.15,3.87,3.87,0,0,1-3.84,4.15m0-8.77a4.47,4.47,0,0,0-4.53,4.62,4.52,4.52,0,1,0,4.53-4.62" transform="translate(-9.37 -146.98)"/></g><g id="g5083"><path id="path5085" class="cls-3" d="M90.24,226.13v-1.68h1.14c.57,0,1.25.08,1.25.78s-.63.9-1.33.9Zm3.23-.79c0-1.1-.67-1.57-2-1.57H89.41v5.46h.9V226.9h.84l1.41,2.33h1l-1.52-2.39a1.41,1.41,0,0,0,1.42-1.5" transform="translate(-9.37 -146.98)"/></g></svg>