<svg xmlns="http://www.w3.org/2000/svg" width="152" height="152" viewBox="0 0 152 152"><defs><style>.a{fill:#fff;}</style></defs><path class="a" d="M12.667,212.133h114A2.533,2.533,0,0,0,129.2,209.6V143.733h-5.067v63.333H12.667a7.6,7.6,0,1,1,0-15.2h5.067a2.533,2.533,0,0,0,2.533-2.533v-76H60.8v-5.067H20.267V90.533A2.533,2.533,0,0,0,17.733,88H12.667A12.682,12.682,0,0,0,0,100.667v98.8A12.682,12.682,0,0,0,12.667,212.133ZM5.067,110.8V100.667a7.6,7.6,0,0,1,7.6-7.6H15.2V186.8H12.667a12.616,12.616,0,0,0-7.6,2.533Zm0,0" transform="translate(0 -60.133)"/><path class="a" d="M112.933,192h-30.4A2.533,2.533,0,0,0,80,194.533V214.8a2.533,2.533,0,0,0,2.533,2.533h30.4a2.533,2.533,0,0,0,2.533-2.533v-7.6H125.6v-5.067H115.467v-7.6A2.533,2.533,0,0,0,112.933,192ZM110.4,212.267H85.067v-15.2H110.4Zm0,0" transform="translate(-54.667 -131.2)"/><path class="a" d="M138.267,328.533h30.4A2.533,2.533,0,0,0,171.2,326V305.733a2.533,2.533,0,0,0-2.533-2.533H156V288h-5.067v15.2H138.267a2.533,2.533,0,0,0-2.533,2.533v7.6H115.467v-7.6a2.533,2.533,0,0,0-2.533-2.533h-30.4A2.533,2.533,0,0,0,80,305.733V326a2.533,2.533,0,0,0,2.533,2.533h30.4A2.533,2.533,0,0,0,115.467,326v-7.6h20.267V326A2.533,2.533,0,0,0,138.267,328.533Zm2.533-20.267h25.333v15.2H140.8Zm-30.4,15.2H85.067v-15.2H110.4Zm0,0" transform="translate(-54.667 -196.8)"/><path class="a" d="M294.8,64a22.8,22.8,0,1,0,22.8,22.8A22.8,22.8,0,0,0,294.8,64Zm0,40.533A17.733,17.733,0,1,1,312.533,86.8,17.733,17.733,0,0,1,294.8,104.533Zm0,0" transform="translate(-185.867 -43.733)"/><path class="a" d="M291.6,53.2a2.533,2.533,0,0,0,2.533-2.533v-15.2a2.533,2.533,0,0,0-2.533-2.533h-9.229a33.558,33.558,0,0,0-2-4.839l6.536-6.513a2.532,2.532,0,0,0,0-3.587L276.146,7.228a2.529,2.529,0,0,0-3.582,0l-6.525,6.536a33.7,33.7,0,0,0-4.839-2V2.533A2.533,2.533,0,0,0,258.667,0h-15.2a2.533,2.533,0,0,0-2.533,2.533v9.229a33.7,33.7,0,0,0-4.839,2L229.579,7.23a2.529,2.529,0,0,0-3.582,0L215.228,17.987a2.532,2.532,0,0,0,0,3.587l6.536,6.513a33.492,33.492,0,0,0-2,4.846h-9.229A2.533,2.533,0,0,0,208,35.467v15.2a2.533,2.533,0,0,0,2.533,2.533h9.229a33.558,33.558,0,0,0,2,4.839l-6.536,6.513a2.532,2.532,0,0,0,0,3.59l10.757,10.739a2.535,2.535,0,0,0,3.582,0l6.515-6.514a33.877,33.877,0,0,0,4.849,2V83.6a2.533,2.533,0,0,0,2.533,2.533h15.2A2.533,2.533,0,0,0,261.2,83.6V74.371a33.726,33.726,0,0,0,4.842-2l6.515,6.514a2.534,2.534,0,0,0,3.58,0L286.9,68.139a2.532,2.532,0,0,0,0-3.59l-6.536-6.513a33.525,33.525,0,0,0,2-4.837Zm-13.568-3.179a28.973,28.973,0,0,1-2.985,7.2,2.533,2.533,0,0,0,.4,3.07l6.08,6.06L274.35,73.51l-6.057-6.065a2.534,2.534,0,0,0-3.068-.4,28.853,28.853,0,0,1-7.2,2.982,2.534,2.534,0,0,0-1.9,2.449v8.588H246V72.478a2.533,2.533,0,0,0-1.888-2.449,28.854,28.854,0,0,1-7.2-2.982,2.534,2.534,0,0,0-3.068.4l-6.062,6.062-7.177-7.16,6.08-6.06a2.533,2.533,0,0,0,.4-3.07,28.973,28.973,0,0,1-2.985-7.2,2.533,2.533,0,0,0-2.449-1.888h-8.588V38h8.588a2.533,2.533,0,0,0,2.447-1.888,28.973,28.973,0,0,1,2.985-7.2,2.533,2.533,0,0,0-.4-3.07l-6.08-6.062,7.179-7.179,6.062,6.08a2.533,2.533,0,0,0,3.07.4,28.854,28.854,0,0,1,7.2-2.982A2.534,2.534,0,0,0,246,13.655V5.067h10.133v8.588a2.533,2.533,0,0,0,1.888,2.449,28.854,28.854,0,0,1,7.2,2.982,2.533,2.533,0,0,0,3.075-.4l6.062-6.08,7.179,7.179-6.08,6.062a2.531,2.531,0,0,0-.4,3.07,29.016,29.016,0,0,1,2.984,7.2A2.532,2.532,0,0,0,280.478,38h8.588V48.133h-8.588a2.533,2.533,0,0,0-2.447,1.888Zm0,0" transform="translate(-142.133)"/><path class="a" d="M322.133,104a10.133,10.133,0,1,0,10.133,10.133A10.134,10.134,0,0,0,322.133,104Zm0,15.2a5.067,5.067,0,1,1,5.067-5.067A5.067,5.067,0,0,1,322.133,119.2Zm0,0" transform="translate(-213.2 -71.067)"/></svg>