<svg id="Layer_1" data-name="Layer 1" xmlns="http://www.w3.org/2000/svg" viewBox="0 0 287.46 105.1"><defs><style>.cls-1{fill:#fff;}.cls-2{fill:#e2231a;}</style></defs><title>Insitu Vector</title><path class="cls-1" d="M139,69.4c-.5-3.3-3.1-5.6-10.5-5.6-5.4,0-8.4,1.5-8.4,4.7q0,2.4,3.6,3c4.1.7,16.5,2.5,21.2,3.3,9,1.5,14.4,5.2,14.4,13.7,0,16.4-21.3,16.5-27.9,16.5-16.4,0-28.2-2.9-29.2-16.4h19.1c.4,3.7,2.4,6,10.8,6,4.1,0,8.5-1,8.5-5.1,0-2.6-2-3.5-7.6-4.3l-16.1-2.4c-10-1.5-13.8-6.5-13.8-13.7,0-6.4,3.9-15.4,25.1-15.4,17.5,0,28.1,4.2,29.1,15.6H139Zm22.2-14.2h16.1v48.3H161.2Zm18.4,0h51.6V66.1H213.5v37.5H197.4V66.1H179.6Zm53.7,0h16.1V83.8c0,7.9,3.7,10.4,11,10.4s11-2.5,11-10.4V55.2h16.1V86.5c0,13.3-10,18.6-27.2,18.6s-27.1-5.2-27.1-18.6V55.2Z" transform="translate(-0.04)"/><path class="cls-2" d="M39.4,55.2H23.3V66.4a141.6,141.6,0,0,0,16.1-2.3Z" transform="translate(-0.04)"/><path class="cls-1" d="M23.3,66.4v37.1H39.4v-38c-3,.3-6,.5-9.1.7C27.9,66.4,25.6,66.4,23.3,66.4Z" transform="translate(-0.04)"/><path class="cls-2" d="M61.8,55.2H43.2v8c8.5-2.1,15.2-4.8,18.7-7.8Z" transform="translate(-0.04)"/><path class="cls-1" d="M84.3,55.2V85.5h-.1L65.5,60.3a112.86,112.86,0,0,1-22.3,4.9v38.4H58.8V73h.1l23.2,30.5H99.9V55.2ZM80.8.1,60.6,4.9,40.3,0,34.6,1.8,47.8,7.9l-16,3.8,4.6,1.8,45-12.3Z" transform="translate(-0.04)"/><path class="cls-2" d="M41,37.4a10,10,0,0,0-18-6,10.54,10.54,0,0,0-2.1,5.8c-7-1-11.8-3.5-12.4-6.9-.8-5.7,9.5-12,23.7-15-1.4.1-2.8.3-4.3.5C11.6,18.3-.9,25.3.1,31.5c.7,4.8,9.4,7.6,21,7.4a10.19,10.19,0,0,0,3.8,6.5A10.05,10.05,0,0,0,39,43.5a9.56,9.56,0,0,0,1.9-4.4c14.2,1.9,23.7,6,24,11.1.1,1.8-1,3.5-2.9,5.2l3.6,4.8c8.6-3,13.8-6.8,13.6-10.7C78.9,42.9,62.6,38,41,37.4Z" transform="translate(-0.04)"/></svg>