<svg xmlns="http://www.w3.org/2000/svg" width="152" height="152" viewBox="0 0 152 152"><defs><style>.a{fill:#fff;}</style></defs><g transform="translate(0)"><path class="a" d="M144.645,0H61.29a7.364,7.364,0,0,0-7.355,7.355V41.677h4.9V7.355A2.453,2.453,0,0,1,61.29,4.9h83.355A2.453,2.453,0,0,1,147.1,7.355V110.323a2.453,2.453,0,0,1-2.452,2.452h-2.452V9.806H63.742V69.1a7.253,7.253,0,0,0-2.452-.451V59.522l-6.021-2.005,2.839-5.675-9.434-9.434L43,45.247l-2.005-6.021H27.654l-2.005,6.021-5.675-2.839-9.434,9.434,2.839,5.675L7.355,59.522v9.123A7.364,7.364,0,0,0,0,76v9.806a7.364,7.364,0,0,0,7.355,7.355H9.806v4.9H7.355A7.364,7.364,0,0,0,0,105.42v9.806a7.364,7.364,0,0,0,7.355,7.355H9.806v4.9H7.355A7.364,7.364,0,0,0,0,134.839v9.806A7.364,7.364,0,0,0,7.355,152H61.29a7.364,7.364,0,0,0,7.355-7.355v-9.806a7.364,7.364,0,0,0-7.355-7.355H58.839v-4.9H61.29a7.345,7.345,0,0,0,6.9-4.9h76.452A7.364,7.364,0,0,0,152,110.323V7.355A7.364,7.364,0,0,0,144.645,0ZM61.29,98.065H58.839v-4.9H61.29a7.345,7.345,0,0,0,6.9-4.9h69.1v24.516H68.645v-7.355a7.364,7.364,0,0,0-7.355-7.355ZM68.645,76V63.742H137.29V83.355H68.645ZM137.29,58.839H68.645V39.226H137.29Zm0-44.129V34.323H68.645V14.71ZM12.258,63.059l5.629-1.876L18.3,60.1c.121-.317.245-.624.378-.928l.475-1.061-2.65-5.3,4.435-4.435,5.3,2.65,1.061-.475c.3-.135.611-.257.928-.378l1.086-.412,1.876-5.629H37.46l1.876,5.629,1.086.412c.317.121.624.245.928.378l1.061.475,5.3-2.65,4.435,4.435-2.65,5.3.475,1.061c.135.3.257.611.378.928l.412,1.086,5.626,1.876v5.587H46.307a12.259,12.259,0,1,0-23.968,0H12.258Zm15.185,5.587a7.356,7.356,0,1,1,13.759,0ZM4.9,85.807V76a2.453,2.453,0,0,1,2.452-2.452H61.29A2.453,2.453,0,0,1,63.742,76v9.806a2.453,2.453,0,0,1-2.452,2.452H7.355A2.453,2.453,0,0,1,4.9,85.807Zm9.806,7.355H53.935v4.9H14.71Zm49.032,41.677v9.806A2.453,2.453,0,0,1,61.29,147.1H7.355A2.453,2.453,0,0,1,4.9,144.646v-9.806a2.453,2.453,0,0,1,2.452-2.452H61.29A2.453,2.453,0,0,1,63.742,134.839Zm-9.806-7.355H14.71v-4.9H53.935Zm9.806-12.258a2.453,2.453,0,0,1-2.452,2.452H7.355A2.453,2.453,0,0,1,4.9,115.226V105.42a2.453,2.453,0,0,1,2.452-2.452H61.29a2.453,2.453,0,0,1,2.452,2.452Zm0,0"/><path class="a" d="M416,64h4.9v4.9H416Zm0,0" transform="translate(-288.516 -44.387)"/><path class="a" d="M384,64h4.9v4.9H384Zm0,0" transform="translate(-266.322 -44.387)"/><path class="a" d="M240,64h4.9v9.806H240Zm0,0" transform="translate(-166.452 -44.387)"/><path class="a" d="M272,64h4.9v9.806H272Zm0,0" transform="translate(-188.645 -44.387)"/><path class="a" d="M304,64h4.9v9.806H304Zm0,0" transform="translate(-210.839 -44.387)"/><path class="a" d="M416,224h4.9v4.9H416Zm0,0" transform="translate(-288.516 -155.355)"/><path class="a" d="M384,224h4.9v4.9H384Zm0,0" transform="translate(-266.322 -155.355)"/><path class="a" d="M304,224h4.9v9.806H304Zm0,0" transform="translate(-210.839 -155.355)"/><path class="a" d="M240,144h4.9v4.9H240Zm0,0" transform="translate(-166.452 -99.871)"/><path class="a" d="M272,144h4.9v4.9H272Zm0,0" transform="translate(-188.645 -99.871)"/><path class="a" d="M416,144h4.9v9.806H416Zm0,0" transform="translate(-288.516 -99.871)"/><path class="a" d="M384,144h4.9v9.806H384Zm0,0" transform="translate(-266.322 -99.871)"/><path class="a" d="M352,144h4.9v9.806H352Zm0,0" transform="translate(-244.129 -99.871)"/><path class="a" d="M343.226,304H304v14.71h39.226Zm-4.9,9.806H308.9v-4.9h29.419Zm0,0" transform="translate(-210.839 -210.839)"/><path class="a" d="M32,256h4.9v4.9H32Zm0,0" transform="translate(-22.194 -177.548)"/><path class="a" d="M64,256h4.9v4.9H64Zm0,0" transform="translate(-44.387 -177.548)"/><path class="a" d="M176,352h4.9v4.9H176Zm0,0" transform="translate(-122.065 -244.129)"/><path class="a" d="M144,352h4.9v4.9H144Zm0,0" transform="translate(-99.871 -244.129)"/><path class="a" d="M32,448h4.9v4.9H32Zm0,0" transform="translate(-22.194 -310.709)"/><path class="a" d="M64,448h4.9v4.9H64Zm0,0" transform="translate(-44.387 -310.709)"/><path class="a" d="M272,224h4.9v9.806H272Zm0,0" transform="translate(-188.645 -155.355)"/><path class="a" d="M240,224h4.9v9.806H240Zm0,0" transform="translate(-166.452 -155.355)"/><path class="a" d="M272,336h4.9v4.9H272Zm0,0" transform="translate(-188.645 -233.032)"/><path class="a" d="M240,336h4.9v4.9H240Zm0,0" transform="translate(-166.452 -233.032)"/><path class="a" d="M272,304h4.9v4.9H272Zm0,0" transform="translate(-188.645 -210.839)"/><path class="a" d="M240,304h4.9v4.9H240Zm0,0" transform="translate(-166.452 -210.839)"/></g></svg>