<svg xmlns="http://www.w3.org/2000/svg" viewBox="0 0 35.568 35.568">
  <defs>
    <style>
      .cls-1 {
        fill: #A62033 ;
      }
    </style>
  </defs>
  <g id="top_arrow" transform="translate(-12 47.568) rotate(-90)">
    <path id="Path_56" data-name="Path 56" class="cls-1" d="M29.784,12A17.784,17.784,0,1,0,47.568,29.784,17.792,17.792,0,0,0,29.784,12Zm0,34.2A16.416,16.416,0,1,1,46.2,29.784,16.42,16.42,0,0,1,29.784,46.2Z"/>
    <path id="Path_57" data-name="Path 57" class="cls-1" d="M50.085,45.905,55.66,51.48a.675.675,0,0,1,.205.479.574.574,0,0,1-.205.479l-5.506,5.575a.661.661,0,0,1-.958,0,.675.675,0,0,1-.205-.479.621.621,0,0,1,.205-.479l4.343-4.412H36.884a.684.684,0,0,1,0-1.368H53.539l-4.412-4.412a.661.661,0,0,1,0-.958A.661.661,0,0,1,50.085,45.905Z" transform="translate(-15.924 -22.175)"/>
  </g>
</svg>
