<svg id="Layer_1" data-name="Layer 1" xmlns="http://www.w3.org/2000/svg" viewBox="0 0 247.1 51.72"><defs><style>.cls-1{fill:#fff;}.cls-1,.cls-2{fill-rule:evenodd;}.cls-2{fill:#00814a;}</style></defs><title>Weyerhaeuser Vector</title><path class="cls-1" d="M234,460.74l-.16-.66a7.35,7.35,0,0,1,.49-2.39,2.17,2.17,0,0,1,2.31-1.4q3.14,0,3.13,3.63a.72.72,0,0,1-.82.82ZM207.81,450l-.82-1.81c0-.44.33-.83,1-1.16s1-.66,1-1a1.36,1.36,0,0,0-.82-.5h-7.25l-.83.5c.78.77,1.54,1.48,2.31,2.15l7.75,21.42a1.45,1.45,0,0,0,.66,1.16c.44-.23.66-.44.66-.67l5.93-12.35.5-.34.33.34,4.12,11.86c.22.77.55,1.16,1,1.16a.82.82,0,0,1,.41-.25.76.76,0,0,0,.41-.42l7.75-21.26a3.46,3.46,0,0,1,1.23-2.06c.5-.27.75-.52.75-.74a1.4,1.4,0,0,0-.83-.5h-6.09l-.83.5c0,.33.52.69,1.57,1.07a2.2,2.2,0,0,1,1.56,2.23l-.16,2.63-3.79,10.06-.5,1.81a.48.48,0,0,1-.17-.33c-.32-.55-.6-1-.82-1.48l-4-12-.49-1.81c0-.44.33-.83,1-1.16s1-.66,1-1l-.5-.5h-7.74l-.83.5c.88.77,1.76,1.48,2.64,2.15l1.48,4.94.67,2-.67,1.16-3.46,7.58-.16.5a2.46,2.46,0,0,1-.33-.42c-.12-.16-.28-.35-.49-.58L207.81,450Zm35.28,11.86a1.09,1.09,0,0,0,.33-.82,5.35,5.35,0,0,0-1.48-3.63,6.66,6.66,0,0,0-5.11-2.14,5.59,5.59,0,0,0-4.87,2.48,10.08,10.08,0,0,0-1.73,5.93,6.44,6.44,0,0,0,2.06,5.11,7.47,7.47,0,0,0,9.23.41c1.26-.94,1.79-1.79,1.57-2.55a5,5,0,0,1-1.32.82,6.65,6.65,0,0,1-2.8.82,4.57,4.57,0,0,1-3.79-1.64,6.09,6.09,0,0,1-1.32-4c0-.56.21-.83.65-.83Zm7.75,6.76,1,2.15-1,1.81-2.15,3.46v.82h1.81l.34-.32,7.41-18.63a2.31,2.31,0,0,1,.83-1.15,8.55,8.55,0,0,1,1.15-.66c0-.44-.44-.67-1.32-.67a.47.47,0,0,0-.16.34,3.68,3.68,0,0,1-1.32.16,6.09,6.09,0,0,1-2-.5c-1,0-1.48.28-1.48.83,0,.22.41.49,1.23.82a1.71,1.71,0,0,1,1.24,1.65l-.66,2.15L254,465.35l-.5.67-.49-.67-2.64-5.93a3.74,3.74,0,0,1-.66-1.48c0-.33.3-.64.91-.91s.9-.58.9-.9-.33-.44-1-.67a19.25,19.25,0,0,0-3,.5,5.8,5.8,0,0,1-2.64-.5l-1.32.67c0,.21.28.51.83.9a3.41,3.41,0,0,1,1.15,1.24l5.28,10.38Zm22.25-6.76.16-.82a5.74,5.74,0,0,0-1.81-3.79,6.38,6.38,0,0,0-4.95-2,5.22,5.22,0,0,0-4.61,2.48,10.4,10.4,0,0,0-1.65,5.93,6.49,6.49,0,0,0,6.59,6.92,9.49,9.49,0,0,0,4.12-1.15c1.54-.77,2.25-1.71,2.15-2.8a6.35,6.35,0,0,0-1.82.82,5.65,5.65,0,0,1-2.64.82,4.73,4.73,0,0,1-3.7-1.56,5.82,5.82,0,0,1-1.41-4c0-.56.22-.83.67-.83Zm6.26,0a12.64,12.64,0,0,1,.5-2,1.4,1.4,0,0,1,1.48-1c1.43,0,2.36.44,2.8,1.31l1-1a3.31,3.31,0,0,0,1-1.82c0-.33-.39-.77-1.16-1.31a3.49,3.49,0,0,0-1.81-.83q-1,0-3.79,3.13V456l-.16-.83a9.38,9.38,0,0,1-1.16.67,13.85,13.85,0,0,1-2.55.74c-1.27.27-1.9.57-1.9.9s.36.55,1.07.67,1.08.38,1.08.82V467a2.46,2.46,0,0,1-.75,2.06c-.49.38-.74.63-.74.75l.33.32h7.75l.33-.49c0-.22-.56-.49-1.65-.82a2.08,2.08,0,0,1-1.65-2.14v-4.79Zm21.59-.65q0-5.94-4.94-5.94a5.53,5.53,0,0,0-4.78,2.64V444.42a8.15,8.15,0,0,0-1.24.42c-.71.27-1.43.52-2.14.74l-1.9.57c-.55.17-.82.42-.82.75s.38.44,1.15.65a1.43,1.43,0,0,1,1.16,1.49V468a1.21,1.21,0,0,1-.75,1.07c-.49.28-.74.53-.74.75l.67.32h5.76c1,0,1.49-.16,1.49-.49l-1.65-.82a1.86,1.86,0,0,1-1-1.82v-7.58c0-.12,0-.16.16-.16.22-.33.5-.72.83-1.15s1-.67,2.14-.67c1.32,0,2.14.42,2.47,1.24a9.34,9.34,0,0,1,.5,3.38v5.11a2.61,2.61,0,0,1-1.49,2.64l.67.32h6.42l.33-.32c0-.22-.38-.5-1.15-.83a1.82,1.82,0,0,1-1.16-1.81v-5.93Zm-37.25-.5-.17-.66a7.4,7.4,0,0,1,.5-2.39,2.17,2.17,0,0,1,2.31-1.4q3.14,0,3.13,3.63a.73.73,0,0,1-.83.82Zm51.93-.5c0-3.29-1.88-4.94-5.61-4.94a13.44,13.44,0,0,0-4,.74,3,3,0,0,0-2.3,3c0,.44.38.77,1.15,1a6.75,6.75,0,0,1,1.15-.16,1.62,1.62,0,0,0,1.16-1.49c0-1.43.49-2.14,1.48-2.14q3,0,3,5.11a30.79,30.79,0,0,0-5.61,1.65,4.55,4.55,0,0,0-2.8,4.12c0,2.3,1.21,3.46,3.63,3.46a6.6,6.6,0,0,0,2.72-.74,11.92,11.92,0,0,0,2.55-1.57c.33,1.54,1.05,2.31,2.14,2.31a4.82,4.82,0,0,0,2.48-1c.22-.22.6-.55,1.15-1l-.65-.33h-1.16a4.11,4.11,0,0,1-.49-2.14v-5.94Zm15,1.65a1.09,1.09,0,0,0,.33-.82,5.74,5.74,0,0,0-1.81-3.79,6.37,6.37,0,0,0-4.94-2,5.19,5.19,0,0,0-4.7,2.48,10.86,10.86,0,0,0-1.57,5.93q0,6.92,6.6,6.92a8.21,8.21,0,0,0,3.62-1c2-1,3-1.93,3-2.8l-.5-.16a7.34,7.34,0,0,0-1.48.82,5.19,5.19,0,0,1-6.59-.82,5.72,5.72,0,0,1-1.49-4,.73.73,0,0,1,.83-.83Zm16.16-5.76a1.59,1.59,0,0,0-.33-.83c-.66.22-1.05.44-1.15.66a15.82,15.82,0,0,1-2.48.33q-2,.16-2,1c0,.22.36.38,1.08.5s1.07.43,1.07,1V466a2,2,0,0,1-1,1.65,3.85,3.85,0,0,1-2.15.65q-2.79,0-2.79-3.62v-8.57a1.35,1.35,0,0,0-.5-.83l-.83.66a16.25,16.25,0,0,1-2.55.33c-1.38.11-2.06.44-2.06,1,0,.22.41.38,1.23.5s1.24.43,1.24,1v5.61a9.73,9.73,0,0,0,.91,4.53c.6,1.15,1.89,1.73,3.87,1.73a5.35,5.35,0,0,0,3.63-1.48l1-1a3.93,3.93,0,0,0,.49,2.47l4.78-1a3,3,0,0,0,1.16-.49c0-.11-.45-.28-1.32-.5a1.46,1.46,0,0,1-1.32-1.48v-11Zm12.69,0c-.11-.33-.58-.53-1.4-.58s-1.68-.14-2.56-.25a6.12,6.12,0,0,0-3.87,1.08,4.15,4.15,0,0,0-1.4,3.54,3.57,3.57,0,0,0,2.47,3.79c3.3,1.2,4.95,2.31,4.95,3.29,0,1.54-.83,2.31-2.47,2.31a3.32,3.32,0,0,1-3.22-1.73c-.6-1.15-1.07-2.06-1.4-2.72-.44.22-.66.49-.66.83V469l.33.66a4.59,4.59,0,0,0,1.89.66,13,13,0,0,0,2.56.33,6.5,6.5,0,0,0,4-1.23,4.36,4.36,0,0,0,1.65-3.71c0-2.32-1.3-3.91-3.88-4.78s-3.87-1.76-3.87-2.64c0-1.32.71-2,2.14-2a3.76,3.76,0,0,1,3.05,1.57,7.1,7.1,0,0,0,1.4,1.56l.49-.49-.16-2.8Zm14.67,5.76c.55-.21.83-.49.83-.82a5.76,5.76,0,0,0-1.82-3.79,6.37,6.37,0,0,0-4.94-2,6,6,0,0,0-5.11,2.48,9.66,9.66,0,0,0-1.82,5.93,6.53,6.53,0,0,0,2,5.19,7.27,7.27,0,0,0,4.95,1.73,8.31,8.31,0,0,0,4.61-1.4c1.43-.94,2.15-1.73,2.15-2.39l-.66-.16a5.21,5.21,0,0,1-1.32.82,6.69,6.69,0,0,1-2.8.82,4.77,4.77,0,0,1-3.72-1.56,5.85,5.85,0,0,1-1.39-4c0-.56.21-.83.65-.83Zm6.93,0c.1-.44.21-1,.32-1.81s.61-1.15,1.49-1.15a3.13,3.13,0,0,1,2.63,1.31c.55,0,1.05-.44,1.49-1.31a4.17,4.17,0,0,0,.16-1.49c0-.33-.33-.77-1-1.31a2.82,2.82,0,0,0-1.65-.83q-1.15,0-3.45,3.13V456c0-.56-.23-.83-.67-.83a11.73,11.73,0,0,1-3.79,1.32c-.88.33-1.31.66-1.31,1s.35.55,1.06.67,1.08.38,1.08.82V467a2.24,2.24,0,0,1-.91,2.06c-.6.38-.91.63-.91.75a1,1,0,0,0,.66.32h7.26l.49-.49c0-.22-.49-.49-1.48-.82a2.05,2.05,0,0,1-1.48-2.14v-4.79Zm-69.4,5.28c0,.77-.88,1.15-2.64,1.15-1.1,0-1.64-.71-1.64-2.14a3.47,3.47,0,0,1,2.3-3.13,2.64,2.64,0,0,1,1.15-.33.73.73,0,0,1,.66.25,1.7,1.7,0,0,1,.17.9v3.3Zm53.41-6.43v-.66c0-2.53.87-3.79,2.63-3.79q3,0,3,3.63a1,1,0,0,1-.49.82Zm-43.52,0c-.33-.22-.5-.44-.5-.66a5.1,5.1,0,0,1,.66-2.72,2.5,2.5,0,0,1,2.31-1.07q3,0,3,3.63a1,1,0,0,1-.5.82Z" transform="translate(-140.05 -425.17)"/><path class="cls-2" d="M161.35,474a7.53,7.53,0,0,0,1.81-1,3.59,3.59,0,0,0,1.26-1.34c.05-.09.19-.57.43-1.44l1.88-11.17h-.8a6.4,6.4,0,0,1-1.87,3.31,3.74,3.74,0,0,1-1.48,1,6.36,6.36,0,0,1-2,.25c-.53,0-1.07,0-1.62,0s-1.12,0-1.7,0l11.54-19.1,11.1,19.1c-.68.05-1.3.07-1.88.07h-1.58a5.3,5.3,0,0,1-2-.32,4.18,4.18,0,0,1-1.51-1.16,6.5,6.5,0,0,1-1-1.44,6,6,0,0,1-.44-1.62h-.93l1.66,10.67.36,1.51a2.38,2.38,0,0,0,1.08,1.51,8,8,0,0,0,2.7,1.27,19.5,19.5,0,0,0,3.71.25H197l-28.18-49.09-28.77,49.09h18.89a7.74,7.74,0,0,0,2.41-.29Z" transform="translate(-140.05 -425.17)"/></svg>