<svg id="Layer_1" data-name="Layer 1" xmlns="http://www.w3.org/2000/svg" viewBox="0 0 199.86 32.14"><defs><style>.cls-1{fill:#fff;}.cls-2{fill:#5698c5;}.cls-3{fill:#0768a9;}.cls-4{fill:#abcce2;}.cls-5{fill:#92cc57;}.cls-6{fill:#c8e5aa;}.cls-7{fill:#6ebb1f;}.cls-8{fill:#ee014c;}.cls-9{fill:#474747;}</style></defs><title>Wolters_Kluwer</title><path class="cls-1" d="M98.82,45.34H96.9l-3.21-9c-.28-.8-.61-1.75-.91-2.77h-.06c-.31,1-.61,1.94-.92,2.74l-3.32,9H86.57L80.17,27h2.71l3.91,11.8c.3,1,.58,1.83.83,2.74h.06c.25-.86.58-1.77.91-2.71l3-8.29L90.34,27h2.54l4,11.63c.36,1,.72,1.92,1,2.8h.06c.22-.91.44-1.74.77-2.72L102.47,27h2.58Z" transform="translate(-39.56 -17.15)"/><path class="cls-1" d="M114,33.59a7.25,7.25,0,0,1,1.8,5.1,7.15,7.15,0,0,1-1.86,5.12,6.36,6.36,0,0,1-8.58.11,7.26,7.26,0,0,1-1.89-5.21,7.29,7.29,0,0,1,1.86-5.15,6.23,6.23,0,0,1,8.67,0Zm-8,5.07c0,2.91,1.38,4.85,3.68,4.85s3.63-2,3.63-4.85-1.33-4.82-3.68-4.82S105.94,35.78,105.94,38.66Z" transform="translate(-39.56 -17.15)"/><path class="cls-1" d="M120.21,45.53A2.3,2.3,0,0,1,117.69,43V25.64h2.44V41.87c0,1.14.28,1.45,1,1.45a2.22,2.22,0,0,0,.77-.12l.31,1.81A4.09,4.09,0,0,1,120.21,45.53Z" transform="translate(-39.56 -17.15)"/><path class="cls-1" d="M127.45,45.53a2.64,2.64,0,0,1-3-2.88V34.12H122.3v-2h2.19V29.21l2.47-.78v3.72h4l-.8,2H127v7.7c0,1.08.41,1.58,1.27,1.58a4.21,4.21,0,0,0,2.28-.86l.71,1.66A6.75,6.75,0,0,1,127.45,45.53Z" transform="translate(-39.56 -17.15)"/><path class="cls-1" d="M134.22,39.21a4,4,0,0,0,4.12,4.24,6.52,6.52,0,0,0,3.19-.91l.69,1.63a7.54,7.54,0,0,1-4.35,1.36c-4.27,0-6.23-3.35-6.23-7s2.19-6.7,5.54-6.7,5.43,2.68,5.43,6.76v.63Zm2.93-5.4c-1.83,0-3,1.61-3,3.49H140C140,35.61,139.06,33.81,137.15,33.81Z" transform="translate(-39.56 -17.15)"/><path class="cls-1" d="M151.36,34.53a2.94,2.94,0,0,0-1.36-.3,4.42,4.42,0,0,0-2.74,1.44v9.58h-2.47V32.15h2.05l.3,1.47c1.64-1.5,2.67-1.8,3.69-1.8a2.84,2.84,0,0,1,1.5.44Z" transform="translate(-39.56 -17.15)"/><path class="cls-1" d="M156.32,45.53a7.62,7.62,0,0,1-4.21-1.08l.88-1.86a6.14,6.14,0,0,0,3.3,1c1.53,0,2.58-.67,2.58-1.77,0-2.91-6-1.86-6-6.43,0-2,1.53-3.6,4.58-3.6a8.44,8.44,0,0,1,3.46.69v2.1a8.17,8.17,0,0,0-3.38-.8c-1.28,0-2.24.44-2.24,1.5,0,2.63,6.09,1.91,6.09,6.29C161.39,44.39,159,45.53,156.32,45.53Z" transform="translate(-39.56 -17.15)"/><path class="cls-1" d="M177.89,45.25l-7-8.17h0v8.17h-2.46V27h2.44v8.2h0l6.6-8.15h3L173,36l8,9.28Z" transform="translate(-39.56 -17.15)"/><path class="cls-1" d="M184.57,45.53A2.3,2.3,0,0,1,182.05,43V25.64h2.43V41.87c0,1.14.28,1.45,1,1.45a2.24,2.24,0,0,0,.78-.12l.3,1.81A4.08,4.08,0,0,1,184.57,45.53Z" transform="translate(-39.56 -17.15)"/><path class="cls-1" d="M196.48,45.25,196,43.92a6.48,6.48,0,0,1-4.19,1.61c-1.75,0-4.12-.91-4.12-4.76V32.15h2.46v8.42c0,2,.86,2.91,2.47,2.91A4.42,4.42,0,0,0,195.76,42V32.15h2.44v8.23c0,3.43.08,4.29.28,4.87Z" transform="translate(-39.56 -17.15)"/><path class="cls-1" d="M214.45,45.34h-2l-3.16-10h-.08l-3.16,10h-2l-4.48-13.19H202L205.05,42h.09l3.1-9.89h2.08l3.15,9.92h.09l3-9.92h2.36Z" transform="translate(-39.56 -17.15)"/><path class="cls-1" d="M221.54,39.21a4,4,0,0,0,4.13,4.24,6.55,6.55,0,0,0,3.19-.91l.69,1.63a7.58,7.58,0,0,1-4.35,1.36c-4.27,0-6.23-3.35-6.23-7s2.18-6.7,5.54-6.7,5.43,2.68,5.43,6.76v.63Zm2.94-5.4c-1.83,0-3,1.61-3,3.49h5.82C227.34,35.61,226.39,33.81,224.48,33.81Z" transform="translate(-39.56 -17.15)"/><path class="cls-1" d="M238.46,34.53a3,3,0,0,0-1.36-.3,4.44,4.44,0,0,0-2.75,1.44v9.58h-2.46V32.15h2l.31,1.47c1.64-1.5,2.66-1.8,3.69-1.8a2.8,2.8,0,0,1,1.49.44Z" transform="translate(-39.56 -17.15)"/><path class="cls-2" d="M51.85,21.86V17.6a16.07,16.07,0,0,0-7.58,4.26Z" transform="translate(-39.56 -17.15)"/><path class="cls-3" d="M59.42,21.86V17.6A16,16,0,0,1,67,21.86Z" transform="translate(-39.56 -17.15)"/><path class="cls-4" d="M55.65,17.15a15.82,15.82,0,0,0-3.8.45v4.26h7.57V17.6A16.15,16.15,0,0,0,55.65,17.15Z" transform="translate(-39.56 -17.15)"/><path class="cls-3" d="M59.42,44.58v4.27A16.14,16.14,0,0,0,67,44.58Z" transform="translate(-39.56 -17.15)"/><path class="cls-3" d="M51.85,44.58v4.27a16.17,16.17,0,0,1-7.58-4.27Z" transform="translate(-39.56 -17.15)"/><path class="cls-2" d="M55.62,49.29a16.46,16.46,0,0,0,3.8-.44V44.58H51.85v4.26A16.08,16.08,0,0,0,55.62,49.29Z" transform="translate(-39.56 -17.15)"/><path class="cls-3" d="M67,29.43h4.27A16.14,16.14,0,0,0,67,21.86Z" transform="translate(-39.56 -17.15)"/><path class="cls-3" d="M67,37h4.27A16.14,16.14,0,0,1,67,44.58Z" transform="translate(-39.56 -17.15)"/><path class="cls-2" d="M71.7,33.23a16.46,16.46,0,0,0-.44-3.8H67V37h4.26A15.71,15.71,0,0,0,71.7,33.23Z" transform="translate(-39.56 -17.15)"/><path class="cls-3" d="M44.27,37H40a16,16,0,0,0,4.26,7.57Z" transform="translate(-39.56 -17.15)"/><path class="cls-2" d="M44.27,29.43H40a16,16,0,0,1,4.26-7.57Z" transform="translate(-39.56 -17.15)"/><path class="cls-4" d="M39.56,33.21A15.94,15.94,0,0,0,40,37h4.26V29.43H40A16.23,16.23,0,0,0,39.56,33.21Z" transform="translate(-39.56 -17.15)"/><rect class="cls-5" x="4.71" y="4.71" width="7.57" height="7.57"/><rect class="cls-6" x="4.71" y="12.28" width="7.57" height="7.57"/><rect class="cls-7" x="4.71" y="19.86" width="7.57" height="7.57"/><rect class="cls-6" x="12.28" y="4.71" width="7.57" height="7.57"/><rect class="cls-8" x="12.28" y="12.28" width="7.57" height="7.57"/><rect class="cls-5" x="12.28" y="19.86" width="7.57" height="7.57"/><rect class="cls-7" x="19.86" y="4.71" width="7.57" height="7.57"/><rect class="cls-5" x="19.86" y="12.28" width="7.57" height="7.57"/><rect class="cls-7" x="19.86" y="19.86" width="7.57" height="7.57"/><path class="cls-9" d="M71.67,43.44a2.07,2.07,0,0,1,2.12-2.15,2.16,2.16,0,0,1,0,4.31A2.07,2.07,0,0,1,71.67,43.44Zm3.77,0a1.65,1.65,0,1,0-1.65,1.75A1.65,1.65,0,0,0,75.44,43.44Zm-2.39-1.19h.69a1.32,1.32,0,0,1,.39,0,.58.58,0,0,1,.43.58.65.65,0,0,1-.55.63h0a3.9,3.9,0,0,1,.7,1H74.2c-.31-.56-.5-.91-.61-.94H73.5v.94h-.45Zm.57,1c.26,0,.47-.09.47-.35a.28.28,0,0,0-.18-.3,1.14,1.14,0,0,0-.28,0H73.5v.68Z" transform="translate(-39.56 -17.15)"/></svg>